<?xml version="1.0" encoding="UTF-8" standalone="no"?>
<!DOCTYPE svg PUBLIC "-//W3C//DTD SVG 1.1//EN" "http://www.w3.org/Graphics/SVG/1.1/DTD/svg11.dtd">
<svg width="100%" height="100%" viewBox="0 0 218 62" version="1.1" xmlns="http://www.w3.org/2000/svg" xmlns:xlink="http://www.w3.org/1999/xlink" xml:space="preserve" xmlns:serif="http://www.serif.com/" style="fill-rule:evenodd;clip-rule:evenodd;stroke-linejoin:round;stroke-miterlimit:1.41421;">
    <g transform="matrix(1,0,0,1,-680,-96)">
        <g transform="matrix(0.477604,0,0,0.57963,665,0)">
            <g id="green" transform="matrix(2.58263,0,0,3.64053,-2042.28,912.566)">
                <g transform="matrix(1.66734,0,0,0.108255,-1851.75,-257.595)">
                    <path d="M1615,607.75C1615,601.817 1614.47,597 1613.81,597L1597.19,597C1596.54,597 1596,601.817 1596,607.75L1596,629.25C1596,635.183 1596.54,640 1597.19,640L1613.81,640C1614.47,640 1615,635.183 1615,629.25L1615,607.75Z" style="fill:rgb(92,63,53);"/>
                    <path d="M1613.89,579.497L1613.97,579.525L1614.05,579.57L1614.13,579.634L1614.2,579.715L1614.28,579.814L1614.36,579.929L1614.44,580.063L1614.51,580.213L1614.59,580.38L1614.66,580.563L1614.74,580.763L1614.81,580.978L1614.89,581.211L1614.96,581.457L1615.03,581.719L1615.1,581.996L1615.17,582.287L1615.24,582.592L1615.3,582.911L1615.37,583.244L1615.43,583.594L1615.5,583.954L1615.56,584.328L1615.62,584.715L1615.68,585.113L1615.75,585.528L1615.8,585.951L1615.86,586.386L1615.92,586.838L1615.97,587.296L1616.03,587.767L1616.08,588.251L1616.13,588.743L1616.18,589.248L1616.23,589.765L1616.28,590.296L1616.32,590.833L1616.36,591.377L1616.41,591.933L1616.45,592.501L1616.49,593.082L1616.53,593.675L1616.57,594.266L1616.6,594.868L1616.63,595.483L1616.67,596.109L1616.7,596.746L1616.73,597.379L1616.75,598.03L1616.78,598.692L1616.8,599.349L1616.83,600.015L1616.85,600.699L1616.87,601.384L1616.88,602.07L1616.9,602.765L1616.91,603.468L1616.92,604.171L1616.93,604.88L1616.94,605.597L1616.94,606.303L1616.94,607.024L1616.94,607.64L1616.94,629.36L1616.94,629.977L1616.94,630.697L1616.94,631.403L1616.93,632.12L1616.92,632.829L1616.91,633.532L1616.9,634.235L1616.88,634.93L1616.87,635.615L1616.85,636.301L1616.83,636.985L1616.8,637.651L1616.78,638.308L1616.75,638.97L1616.73,639.621L1616.7,640.254L1616.67,640.892L1616.63,641.516L1616.6,642.131L1616.57,642.734L1616.53,643.325L1616.49,643.919L1616.45,644.498L1616.41,645.066L1616.36,645.623L1616.32,646.168L1616.28,646.705L1616.23,647.235L1616.18,647.752L1616.13,648.257L1616.08,648.75L1616.03,649.233L1615.97,649.703L1615.92,650.162L1615.86,650.614L1615.8,651.05L1615.75,651.471L1615.68,651.887L1615.62,652.285L1615.56,652.673L1615.5,653.047L1615.44,653.405L1615.37,653.755L1615.3,654.089L1615.24,654.407L1615.17,654.714L1615.1,655.005L1615.03,655.281L1614.96,655.543L1614.89,655.79L1614.81,656.022L1614.74,656.237L1614.66,656.436L1614.59,656.62L1614.51,656.787L1614.44,656.937L1614.36,657.07L1614.28,657.187L1614.2,657.285L1614.13,657.367L1614.05,657.43L1613.97,657.475L1613.89,657.503L1613.82,657.51L1597.18,657.51L1597.11,657.503L1597.03,657.475L1596.95,657.43L1596.88,657.367L1596.8,657.285L1596.72,657.187L1596.64,657.07L1596.56,656.937L1596.49,656.787L1596.41,656.62L1596.34,656.436L1596.26,656.236L1596.19,656.021L1596.12,655.791L1596.04,655.543L1595.97,655.281L1595.9,655.006L1595.83,654.714L1595.76,654.407L1595.7,654.087L1595.63,653.753L1595.57,653.407L1595.5,653.047L1595.44,652.673L1595.38,652.285L1595.31,651.883L1595.26,651.475L1595.2,651.05L1595.14,650.61L1595.08,650.166L1595.03,649.703L1594.98,649.233L1594.92,648.754L1594.87,648.252L1594.82,647.747L1594.77,647.235L1594.73,646.711L1594.68,646.174L1594.63,645.617L1594.59,645.06L1594.55,644.498L1594.51,643.919L1594.47,643.332L1594.43,642.734L1594.4,642.131L1594.37,641.516L1594.33,640.884L1594.3,640.262L1594.27,639.621L1594.25,638.962L1594.22,638.316L1594.2,637.652L1594.17,636.977L1594.15,636.309L1594.13,635.615L1594.12,634.929L1594.1,634.235L1594.09,633.532L1594.08,632.829L1594.07,632.12L1594.06,631.412L1594.06,630.689L1594.06,629.968L1594.06,629.36L1594.06,607.64L1594.06,607.032L1594.06,606.312L1594.06,605.588L1594.07,604.88L1594.08,604.171L1594.09,603.468L1594.1,602.765L1594.12,602.071L1594.13,601.384L1594.15,600.691L1594.17,600.023L1594.2,599.348L1594.22,598.684L1594.25,598.038L1594.27,597.379L1594.3,596.738L1594.33,596.117L1594.37,595.483L1594.4,594.868L1594.43,594.266L1594.47,593.668L1594.51,593.082L1594.55,592.501L1594.59,591.939L1594.63,591.383L1594.68,590.827L1594.73,590.29L1594.77,589.765L1594.82,589.253L1594.87,588.748L1594.92,588.246L1594.98,587.767L1595.03,587.296L1595.08,586.834L1595.14,586.39L1595.2,585.951L1595.26,585.525L1595.31,585.116L1595.38,584.715L1595.44,584.328L1595.5,583.954L1595.57,583.591L1595.63,583.246L1595.7,582.913L1595.76,582.592L1595.83,582.287L1595.9,581.994L1595.97,581.719L1596.04,581.457L1596.12,581.21L1596.19,580.979L1596.26,580.764L1596.34,580.563L1596.41,580.38L1596.49,580.213L1596.56,580.063L1596.64,579.929L1596.72,579.814L1596.8,579.715L1596.88,579.633L1596.95,579.57L1597.03,579.525L1597.11,579.497L1597.18,579.49L1613.82,579.49L1613.89,579.497ZM1597.19,597L1597.16,597.004L1597.13,597.014L1597.1,597.031L1597.07,597.056L1597.04,597.086L1597.01,597.124L1596.98,597.168L1596.95,597.219L1596.92,597.275L1596.9,597.339L1596.87,597.408L1596.84,597.484L1596.81,597.565L1596.78,597.653L1596.76,597.746L1596.73,597.845L1596.7,597.95L1596.68,598.061L1596.65,598.177L1596.63,598.298L1596.6,598.425L1596.58,598.557L1596.55,598.695L1596.53,598.837L1596.5,598.984L1596.48,599.137L1596.46,599.294L1596.43,599.456L1596.41,599.623L1596.39,599.794L1596.37,599.97L1596.35,600.15L1596.33,600.335L1596.31,600.524L1596.29,600.717L1596.27,600.914L1596.26,601.115L1596.24,601.32L1596.22,601.529L1596.2,601.741L1596.19,601.958L1596.17,602.177L1596.16,602.401L1596.14,602.628L1596.13,602.858L1596.12,603.091L1596.11,603.328L1596.09,603.567L1596.08,603.81L1596.07,604.055L1596.06,604.304L1596.05,604.555L1596.05,604.808L1596.04,605.065L1596.03,605.323L1596.02,605.585L1596.02,605.848L1596.01,606.114L1596.01,606.382L1596.01,606.652L1596,606.923L1596,607.197L1596,607.473L1596,607.75L1596,629.25L1596,629.527L1596,629.803L1596,630.077L1596.01,630.348L1596.01,630.618L1596.01,630.886L1596.02,631.152L1596.02,631.415L1596.03,631.677L1596.04,631.935L1596.05,632.192L1596.05,632.445L1596.06,632.696L1596.07,632.945L1596.08,633.19L1596.09,633.433L1596.11,633.672L1596.12,633.909L1596.13,634.142L1596.14,634.372L1596.16,634.599L1596.17,634.823L1596.19,635.042L1596.2,635.259L1596.22,635.471L1596.24,635.68L1596.26,635.885L1596.27,636.086L1596.29,636.283L1596.31,636.476L1596.33,636.665L1596.35,636.85L1596.37,637.03L1596.39,637.206L1596.41,637.377L1596.43,637.544L1596.46,637.706L1596.48,637.863L1596.5,638.016L1596.53,638.163L1596.55,638.305L1596.58,638.443L1596.6,638.575L1596.63,638.702L1596.65,638.823L1596.68,638.939L1596.7,639.05L1596.73,639.155L1596.76,639.254L1596.78,639.347L1596.81,639.435L1596.84,639.516L1596.87,639.592L1596.9,639.661L1596.92,639.725L1596.95,639.781L1596.98,639.832L1597.01,639.876L1597.04,639.914L1597.07,639.944L1597.1,639.969L1597.13,639.986L1597.16,639.996L1597.19,640L1613.81,640L1613.84,639.996L1613.87,639.986L1613.9,639.969L1613.93,639.944L1613.96,639.914L1613.99,639.876L1614.02,639.832L1614.05,639.781L1614.08,639.725L1614.1,639.661L1614.13,639.592L1614.16,639.516L1614.19,639.435L1614.22,639.347L1614.24,639.254L1614.27,639.155L1614.3,639.05L1614.32,638.939L1614.35,638.823L1614.38,638.702L1614.4,638.575L1614.42,638.443L1614.45,638.305L1614.47,638.163L1614.5,638.016L1614.52,637.863L1614.54,637.706L1614.57,637.544L1614.59,637.377L1614.61,637.206L1614.63,637.03L1614.65,636.85L1614.67,636.665L1614.69,636.476L1614.71,636.283L1614.73,636.086L1614.75,635.885L1614.76,635.68L1614.78,635.471L1614.8,635.259L1614.81,635.042L1614.83,634.823L1614.84,634.599L1614.86,634.372L1614.87,634.142L1614.88,633.909L1614.89,633.672L1614.91,633.433L1614.92,633.19L1614.93,632.945L1614.94,632.696L1614.95,632.445L1614.95,632.192L1614.96,631.935L1614.97,631.677L1614.98,631.415L1614.98,631.152L1614.99,630.886L1614.99,630.618L1614.99,630.348L1615,630.077L1615,629.803L1615,629.527L1615,629.25L1615,607.75L1615,607.473L1615,607.197L1615,606.923L1614.99,606.652L1614.99,606.382L1614.99,606.114L1614.98,605.848L1614.98,605.585L1614.97,605.323L1614.96,605.065L1614.95,604.808L1614.95,604.555L1614.94,604.304L1614.93,604.055L1614.92,603.81L1614.91,603.567L1614.89,603.328L1614.88,603.091L1614.87,602.858L1614.86,602.628L1614.84,602.401L1614.83,602.177L1614.81,601.958L1614.8,601.741L1614.78,601.529L1614.76,601.32L1614.75,601.115L1614.73,600.914L1614.71,600.717L1614.69,600.524L1614.67,600.335L1614.65,600.15L1614.63,599.97L1614.61,599.794L1614.59,599.623L1614.57,599.456L1614.54,599.294L1614.52,599.137L1614.5,598.984L1614.47,598.837L1614.45,598.695L1614.42,598.557L1614.4,598.425L1614.38,598.298L1614.35,598.177L1614.32,598.061L1614.3,597.95L1614.27,597.845L1614.24,597.746L1614.22,597.653L1614.19,597.565L1614.16,597.484L1614.13,597.408L1614.1,597.339L1614.08,597.275L1614.05,597.219L1614.02,597.168L1613.99,597.124L1613.96,597.086L1613.93,597.056L1613.9,597.031L1613.87,597.014L1613.84,597.004L1613.81,597L1597.19,597Z" style="fill:rgb(54,54,54);"/>
                </g>
                <g transform="matrix(6.40913,0,0,0.295009,-9384.75,-373.103)">
                    <path d="M1612.64,598.363C1612.47,597.463 1612.29,597 1612.1,597C1609.94,597 1596,597 1596,597L1596,640C1596,640 1609.77,640 1612.06,640C1612.27,640 1612.48,639.393 1612.67,638.223C1613.38,633.879 1615.2,622.769 1615.89,618.538C1615.94,618.243 1615.97,617.617 1615.97,616.938C1615.97,616.26 1615.93,615.656 1615.88,615.396C1615.18,611.68 1613.33,601.958 1612.64,598.363Z" style="fill:rgb(172,217,33);"/>
                    <path d="M1612.13,590.576L1612.15,590.582L1612.17,590.591L1612.2,590.604L1612.22,590.62L1612.24,590.64L1612.27,590.664L1612.29,590.692L1612.31,590.723L1612.34,590.758L1612.36,590.796L1612.38,590.838L1612.41,590.883L1612.43,590.932L1612.45,590.985L1612.48,591.042L1612.5,591.102L1612.52,591.165L1612.55,591.232L1612.57,591.303L1612.59,591.377L1612.61,591.455L1612.64,591.536L1612.66,591.621L1612.68,591.709L1612.7,591.801L1612.73,591.896L1612.75,591.995L1612.77,592.097L1612.79,592.203L1612.81,592.312L1612.83,592.418L1616.08,609.482L1616.1,609.577L1616.12,609.706L1616.14,609.845L1616.16,609.992L1616.18,610.148L1616.2,610.313L1616.22,610.484L1616.24,610.665L1616.25,610.855L1616.27,611.05L1616.29,611.252L1616.3,611.462L1616.32,611.676L1616.33,611.898L1616.35,612.13L1616.36,612.366L1616.37,612.602L1616.38,612.849L1616.39,613.101L1616.41,613.36L1616.42,613.622L1616.42,613.885L1616.43,614.159L1616.44,614.434L1616.45,614.714L1616.45,614.995L1616.46,615.28L1616.46,615.576L1616.47,615.866L1616.47,616.16L1616.47,616.457L1616.47,616.758L1616.47,617.057L1616.47,617.353L1616.47,617.646L1616.47,617.945L1616.47,618.239L1616.46,618.525L1616.46,618.815L1616.45,619.101L1616.44,619.376L1616.44,619.656L1616.43,619.929L1616.42,620.193L1616.41,620.459L1616.4,620.723L1616.39,620.976L1616.38,621.222L1616.37,621.466L1616.35,621.704L1616.34,621.937L1616.33,622.167L1616.31,622.386L1616.3,622.597L1616.28,622.807L1616.26,623.008L1616.25,623.202L1616.23,623.387L1616.21,623.563L1616.19,623.735L1616.17,623.896L1616.15,624.048L1616.13,624.193L1616.11,624.301L1612.89,644.021L1612.87,644.158L1612.84,644.3L1612.82,644.438L1612.8,644.571L1612.77,644.7L1612.75,644.824L1612.72,644.944L1612.69,645.059L1612.67,645.169L1612.64,645.275L1612.62,645.377L1612.59,645.474L1612.57,645.566L1612.54,645.653L1612.51,645.736L1612.49,645.814L1612.46,645.888L1612.43,645.957L1612.41,646.021L1612.38,646.081L1612.36,646.136L1612.33,646.186L1612.3,646.231L1612.28,646.272L1612.25,646.308L1612.22,646.339L1612.2,646.365L1612.17,646.387L1612.14,646.404L1612.12,646.416L1612.09,646.423L1612.06,646.426L1595.49,646.426L1595.49,590.574L1612.1,590.574L1612.13,590.576ZM1596,597L1596,640L1612.06,640L1612.08,639.998L1612.1,639.993L1612.12,639.984L1612.14,639.972L1612.16,639.956L1612.18,639.936L1612.2,639.913L1612.22,639.887L1612.24,639.857L1612.26,639.823L1612.28,639.786L1612.3,639.746L1612.32,639.702L1612.34,639.655L1612.36,639.604L1612.38,639.55L1612.39,639.492L1612.41,639.431L1612.43,639.367L1612.45,639.299L1612.47,639.228L1612.49,639.153L1612.51,639.075L1612.53,638.994L1612.55,638.909L1612.56,638.821L1612.58,638.73L1612.6,638.635L1612.62,638.537L1612.64,638.436L1612.66,638.331L1612.67,638.223L1615.89,618.538L1615.89,618.51L1615.9,618.479L1615.9,618.447L1615.91,618.413L1615.91,618.377L1615.91,618.339L1615.92,618.3L1615.92,618.259L1615.93,618.217L1615.93,618.173L1615.93,618.128L1615.94,618.081L1615.94,618.033L1615.94,617.984L1615.94,617.934L1615.95,617.882L1615.95,617.829L1615.95,617.776L1615.95,617.721L1615.96,617.665L1615.96,617.608L1615.96,617.551L1615.96,617.492L1615.96,617.433L1615.96,617.373L1615.96,617.313L1615.97,617.251L1615.97,617.19L1615.97,617.128L1615.97,617.065L1615.97,617.002L1615.97,616.938L1615.97,616.875L1615.97,616.812L1615.97,616.75L1615.97,616.688L1615.96,616.627L1615.96,616.566L1615.96,616.506L1615.96,616.447L1615.96,616.389L1615.96,616.332L1615.95,616.276L1615.95,616.22L1615.95,616.166L1615.95,616.113L1615.94,616.061L1615.94,616.01L1615.94,615.96L1615.94,615.912L1615.93,615.865L1615.93,615.819L1615.93,615.775L1615.92,615.732L1615.92,615.691L1615.92,615.651L1615.91,615.613L1615.91,615.577L1615.9,615.542L1615.9,615.509L1615.9,615.478L1615.89,615.449L1615.89,615.421L1615.88,615.396L1612.64,598.363L1612.63,598.279L1612.61,598.199L1612.59,598.121L1612.58,598.046L1612.56,597.973L1612.55,597.903L1612.53,597.835L1612.51,597.77L1612.5,597.708L1612.48,597.648L1612.46,597.591L1612.44,597.536L1612.43,597.484L1612.41,597.435L1612.39,597.388L1612.38,597.344L1612.36,597.302L1612.34,597.264L1612.33,597.227L1612.31,597.194L1612.29,597.163L1612.28,597.135L1612.26,597.109L1612.24,597.086L1612.22,597.066L1612.21,597.049L1612.19,597.034L1612.17,597.022L1612.15,597.012L1612.14,597.005L1612.12,597.001L1612.1,597L1596,597Z" style="fill:rgb(39,166,81);"/>
                </g>
                <g transform="matrix(0.780602,0,0,0.516092,-412.216,-509.843)">
                    <path d="M1615,601.2C1615,598.882 1612.87,597 1610.25,597L1600.75,597C1598.13,597 1596,598.882 1596,601.2L1596,635.8C1596,638.118 1598.13,640 1600.75,640L1610.25,640C1612.87,640 1615,638.118 1615,635.8L1615,601.2Z" style="fill:rgb(230,207,30);"/>
                    <path d="M1610.48,593.329L1610.7,593.337L1610.93,593.35L1611.16,593.367L1611.38,593.39L1611.6,593.417L1611.82,593.45L1612.04,593.487L1612.26,593.529L1612.47,593.575L1612.69,593.626L1612.9,593.682L1613.11,593.742L1613.31,593.806L1613.52,593.875L1613.72,593.948L1613.92,594.024L1614.11,594.105L1614.31,594.191L1614.5,594.28L1614.69,594.373L1614.87,594.469L1615.05,594.57L1615.23,594.674L1615.41,594.782L1615.58,594.893L1615.75,595.008L1615.92,595.127L1616.08,595.249L1616.24,595.374L1616.39,595.501L1616.55,595.633L1616.69,595.768L1616.84,595.906L1616.98,596.047L1617.12,596.191L1617.25,596.338L1617.38,596.488L1617.51,596.64L1617.63,596.795L1617.75,596.954L1617.86,597.114L1617.97,597.278L1618.08,597.444L1618.18,597.613L1618.27,597.785L1618.37,597.957L1618.45,598.134L1618.54,598.312L1618.61,598.493L1618.68,598.675L1618.75,598.859L1618.82,599.046L1618.87,599.235L1618.93,599.425L1618.97,599.616L1619.02,599.81L1619.05,600.006L1619.08,600.201L1619.11,600.398L1619.13,600.597L1619.14,600.797L1619.15,600.999L1619.15,601.177L1619.15,635.823L1619.15,636.001L1619.14,636.203L1619.13,636.403L1619.11,636.602L1619.08,636.799L1619.05,636.994L1619.02,637.19L1618.97,637.384L1618.93,637.575L1618.87,637.765L1618.82,637.954L1618.75,638.141L1618.68,638.325L1618.61,638.507L1618.54,638.688L1618.45,638.865L1618.37,639.043L1618.27,639.215L1618.18,639.387L1618.08,639.556L1617.97,639.722L1617.86,639.886L1617.75,640.046L1617.63,640.205L1617.51,640.36L1617.38,640.512L1617.25,640.662L1617.12,640.809L1616.98,640.953L1616.84,641.094L1616.69,641.232L1616.55,641.367L1616.39,641.499L1616.24,641.626L1616.08,641.751L1615.92,641.873L1615.75,641.992L1615.58,642.107L1615.41,642.218L1615.23,642.326L1615.05,642.43L1614.87,642.531L1614.69,642.627L1614.5,642.72L1614.31,642.809L1614.11,642.895L1613.92,642.976L1613.72,643.052L1613.52,643.125L1613.31,643.194L1613.11,643.258L1612.9,643.318L1612.69,643.374L1612.47,643.425L1612.26,643.471L1612.04,643.513L1611.82,643.55L1611.6,643.583L1611.38,643.61L1611.16,643.633L1610.93,643.65L1610.7,643.663L1610.48,643.671L1610.28,643.673L1600.72,643.673L1600.52,643.671L1600.3,643.663L1600.07,643.65L1599.84,643.633L1599.62,643.61L1599.4,643.583L1599.18,643.55L1598.96,643.513L1598.74,643.471L1598.53,643.425L1598.31,643.374L1598.1,643.318L1597.89,643.258L1597.69,643.194L1597.48,643.125L1597.28,643.052L1597.08,642.975L1596.89,642.894L1596.69,642.809L1596.5,642.72L1596.32,642.627L1596.13,642.53L1595.95,642.43L1595.77,642.326L1595.59,642.218L1595.42,642.107L1595.25,641.991L1595.08,641.873L1594.92,641.752L1594.76,641.627L1594.61,641.498L1594.45,641.367L1594.31,641.232L1594.16,641.094L1594.02,640.954L1593.88,640.81L1593.75,640.662L1593.62,640.512L1593.49,640.36L1593.37,640.204L1593.25,640.047L1593.14,639.886L1593.03,639.722L1592.92,639.556L1592.82,639.387L1592.73,639.215L1592.63,639.042L1592.55,638.867L1592.47,638.688L1592.39,638.507L1592.32,638.325L1592.25,638.14L1592.18,637.954L1592.13,637.766L1592.07,637.576L1592.03,637.383L1591.98,637.19L1591.95,636.996L1591.92,636.798L1591.89,636.601L1591.87,636.403L1591.86,636.203L1591.85,636.001L1591.85,635.823L1591.85,601.177L1591.85,600.999L1591.86,600.797L1591.87,600.597L1591.89,600.399L1591.92,600.202L1591.95,600.004L1591.98,599.81L1592.03,599.617L1592.07,599.424L1592.13,599.234L1592.18,599.046L1592.25,598.86L1592.32,598.675L1592.39,598.493L1592.47,598.312L1592.55,598.133L1592.63,597.958L1592.73,597.785L1592.82,597.613L1592.92,597.444L1593.03,597.278L1593.14,597.114L1593.25,596.953L1593.37,596.796L1593.49,596.64L1593.62,596.488L1593.75,596.338L1593.88,596.19L1594.02,596.046L1594.16,595.906L1594.31,595.768L1594.45,595.633L1594.61,595.502L1594.76,595.373L1594.92,595.248L1595.08,595.127L1595.25,595.009L1595.42,594.893L1595.59,594.782L1595.77,594.674L1595.95,594.57L1596.13,594.47L1596.32,594.373L1596.5,594.28L1596.69,594.191L1596.89,594.106L1597.08,594.025L1597.28,593.947L1597.48,593.875L1597.69,593.806L1597.89,593.742L1598.1,593.682L1598.31,593.626L1598.53,593.575L1598.74,593.529L1598.96,593.487L1599.18,593.45L1599.4,593.417L1599.62,593.39L1599.84,593.367L1600.07,593.35L1600.3,593.337L1600.52,593.329L1600.72,593.327L1610.28,593.327L1610.48,593.329ZM1600.75,597L1600.63,597.001L1600.51,597.005L1600.38,597.012L1600.27,597.022L1600.14,597.034L1600.03,597.048L1599.91,597.066L1599.79,597.085L1599.68,597.108L1599.56,597.132L1599.45,597.159L1599.34,597.189L1599.23,597.221L1599.12,597.255L1599.01,597.291L1598.9,597.33L1598.8,597.371L1598.69,597.414L1598.59,597.46L1598.49,597.507L1598.39,597.557L1598.29,597.608L1598.19,597.662L1598.1,597.718L1598,597.775L1597.91,597.835L1597.82,597.896L1597.73,597.959L1597.64,598.025L1597.56,598.092L1597.47,598.16L1597.39,598.231L1597.31,598.303L1597.24,598.377L1597.16,598.452L1597.09,598.529L1597.01,598.607L1596.94,598.688L1596.88,598.769L1596.81,598.852L1596.75,598.937L1596.69,599.023L1596.63,599.11L1596.57,599.199L1596.52,599.288L1596.47,599.38L1596.42,599.472L1596.37,599.566L1596.33,599.66L1596.29,599.756L1596.25,599.853L1596.21,599.951L1596.18,600.05L1596.15,600.151L1596.12,600.252L1596.1,600.354L1596.07,600.457L1596.06,600.56L1596.04,600.665L1596.03,600.77L1596.01,600.877L1596.01,600.984L1596,601.091L1596,601.2L1596,635.8L1596,635.909L1596.01,636.016L1596.01,636.123L1596.03,636.23L1596.04,636.335L1596.06,636.44L1596.07,636.543L1596.1,636.646L1596.12,636.748L1596.15,636.849L1596.18,636.95L1596.21,637.049L1596.25,637.147L1596.29,637.244L1596.33,637.34L1596.37,637.434L1596.42,637.528L1596.47,637.62L1596.52,637.712L1596.57,637.801L1596.63,637.89L1596.69,637.977L1596.75,638.063L1596.81,638.148L1596.88,638.231L1596.94,638.312L1597.01,638.393L1597.09,638.471L1597.16,638.548L1597.24,638.623L1597.31,638.697L1597.39,638.769L1597.47,638.84L1597.56,638.908L1597.64,638.975L1597.73,639.041L1597.82,639.104L1597.91,639.165L1598,639.225L1598.1,639.282L1598.19,639.338L1598.29,639.392L1598.39,639.443L1598.49,639.493L1598.59,639.54L1598.69,639.586L1598.8,639.629L1598.9,639.67L1599.01,639.709L1599.12,639.745L1599.23,639.779L1599.34,639.811L1599.45,639.841L1599.56,639.868L1599.68,639.892L1599.79,639.915L1599.91,639.934L1600.03,639.952L1600.14,639.966L1600.27,639.978L1600.38,639.988L1600.51,639.995L1600.63,639.999L1600.75,640L1610.25,640L1610.37,639.999L1610.49,639.995L1610.62,639.988L1610.74,639.978L1610.86,639.966L1610.97,639.952L1611.09,639.934L1611.21,639.915L1611.32,639.892L1611.44,639.868L1611.55,639.841L1611.66,639.811L1611.77,639.779L1611.88,639.745L1611.99,639.709L1612.1,639.67L1612.2,639.629L1612.31,639.586L1612.41,639.54L1612.51,639.493L1612.61,639.443L1612.71,639.392L1612.81,639.338L1612.9,639.282L1613,639.225L1613.09,639.165L1613.18,639.104L1613.27,639.041L1613.36,638.975L1613.44,638.908L1613.53,638.84L1613.61,638.769L1613.69,638.697L1613.77,638.623L1613.84,638.548L1613.91,638.471L1613.99,638.393L1614.06,638.312L1614.12,638.231L1614.19,638.148L1614.25,638.063L1614.31,637.977L1614.37,637.89L1614.43,637.801L1614.48,637.712L1614.53,637.62L1614.58,637.528L1614.63,637.434L1614.67,637.34L1614.71,637.244L1614.75,637.147L1614.79,637.049L1614.82,636.95L1614.85,636.849L1614.88,636.748L1614.9,636.646L1614.93,636.543L1614.94,636.44L1614.96,636.335L1614.98,636.23L1614.99,636.123L1614.99,636.016L1615,635.909L1615,635.8L1615,601.2L1615,601.091L1614.99,600.984L1614.99,600.877L1614.98,600.77L1614.96,600.665L1614.94,600.56L1614.93,600.457L1614.9,600.354L1614.88,600.252L1614.85,600.151L1614.82,600.05L1614.79,599.951L1614.75,599.853L1614.71,599.756L1614.67,599.66L1614.63,599.566L1614.58,599.472L1614.53,599.38L1614.48,599.288L1614.43,599.199L1614.37,599.11L1614.31,599.023L1614.25,598.937L1614.19,598.852L1614.12,598.769L1614.06,598.688L1613.99,598.607L1613.91,598.529L1613.84,598.452L1613.77,598.377L1613.69,598.303L1613.61,598.231L1613.53,598.16L1613.44,598.092L1613.36,598.025L1613.27,597.959L1613.18,597.896L1613.09,597.835L1613,597.775L1612.9,597.718L1612.81,597.662L1612.71,597.608L1612.61,597.557L1612.51,597.507L1612.41,597.46L1612.31,597.414L1612.2,597.371L1612.1,597.33L1611.99,597.291L1611.88,597.255L1611.77,597.221L1611.66,597.189L1611.55,597.159L1611.44,597.132L1611.32,597.108L1611.21,597.085L1611.09,597.066L1610.97,597.048L1610.86,597.034L1610.74,597.022L1610.62,597.012L1610.49,597.005L1610.37,597.001L1610.25,597L1600.75,597Z" style="fill:rgb(246,148,28);"/>
                </g>
            </g>
        </g>
    </g>
</svg>
