<?xml version="1.0" encoding="UTF-8" standalone="no"?>
<!DOCTYPE svg PUBLIC "-//W3C//DTD SVG 1.1//EN" "http://www.w3.org/Graphics/SVG/1.1/DTD/svg11.dtd">
<svg width="100%" height="100%" viewBox="0 0 218 63" version="1.1" xmlns="http://www.w3.org/2000/svg" xmlns:xlink="http://www.w3.org/1999/xlink" xml:space="preserve" xmlns:serif="http://www.serif.com/" style="fill-rule:evenodd;clip-rule:evenodd;stroke-linejoin:round;stroke-miterlimit:1.41421;">
    <g transform="matrix(1,0,0,1,-680,-167)">
        <g transform="matrix(0.477604,0,0,0.57963,665,0)">
            <g id="stick" transform="matrix(2.27511,0,0,3.20705,-1793.4,814.221)">
                <g transform="matrix(2.5207,-0.497011,0.0454033,0.0786815,-3184.4,595.457)">
                    <path d="M1615,607.75C1615,601.817 1614.74,597 1614.43,597L1596.57,597C1596.26,597 1596,601.817 1596,607.75L1596,629.25C1596,635.183 1596.26,640 1596.57,640L1614.43,640C1614.74,640 1615,635.183 1615,629.25L1615,607.75Z" style="fill:rgb(92,63,53);"/>
                    <path d="M1615.1,573.319L1615.14,573.638L1615.19,573.98L1615.23,574.34L1615.28,574.716L1615.32,575.113L1615.36,575.528L1615.4,575.959L1615.44,576.414L1615.48,576.88L1615.52,577.363L1615.56,577.87L1615.6,578.389L1615.63,578.919L1615.67,579.466L1615.71,580.032L1615.74,580.614L1615.78,581.214L1615.81,581.826L1615.84,582.453L1615.88,583.094L1615.91,583.745L1615.94,584.413L1615.97,585.109L1615.99,585.8L1616.02,586.499L1616.05,587.236L1616.07,587.97L1616.1,588.716L1616.12,589.475L1616.15,590.24L1616.17,591.037L1616.19,591.844L1616.21,592.658L1616.23,593.472L1616.25,594.288L1616.26,595.132L1616.28,595.994L1616.3,596.856L1616.31,597.723L1616.32,598.606L1616.33,599.492L1616.34,600.38L1616.35,601.281L1616.36,602.184L1616.37,603.108L1616.37,604.026L1616.38,604.966L1616.38,605.894L1616.38,606.797L1616.38,607.575L1616.38,629.418L1616.38,630.186L1616.38,631.132L1616.38,632.054L1616.37,632.953L1616.37,633.877L1616.36,634.801L1616.35,635.723L1616.34,636.619L1616.33,637.513L1616.32,638.404L1616.31,639.266L1616.3,640.151L1616.28,641.03L1616.27,641.855L1616.25,642.7L1616.23,643.539L1616.21,644.348L1616.19,645.175L1616.17,645.97L1616.15,646.736L1616.12,647.518L1616.1,648.29L1616.07,649.033L1616.05,649.767L1616.02,650.494L1615.99,651.21L1615.97,651.897L1615.94,652.573L1615.91,653.258L1615.87,653.915L1615.84,654.545L1615.81,655.163L1615.78,655.784L1615.74,656.395L1615.71,656.963L1615.67,657.533L1615.63,658.09L1615.6,658.603L1615.56,659.121L1615.52,659.637L1615.48,660.125L1615.44,660.588L1615.4,661.045L1615.36,661.476L1615.32,661.882L1615.28,662.279L1615.23,662.662L1615.19,663.02L1615.14,663.359L1615.1,663.685L1615.05,663.984L1615.01,664.262L1614.96,664.521L1614.91,664.757L1614.87,664.974L1614.82,665.17L1614.77,665.344L1614.72,665.494L1614.67,665.622L1614.63,665.727L1614.58,665.809L1614.53,665.869L1614.48,665.904L1614.43,665.914L1596.57,665.914L1596.53,665.904L1596.47,665.869L1596.42,665.809L1596.38,665.728L1596.33,665.623L1596.28,665.493L1596.23,665.344L1596.18,665.171L1596.13,664.975L1596.09,664.757L1596.04,664.519L1595.99,664.262L1595.95,663.98L1595.9,663.681L1595.86,663.362L1595.81,663.021L1595.77,662.662L1595.72,662.281L1595.68,661.885L1595.64,661.472L1595.6,661.037L1595.56,660.589L1595.52,660.123L1595.48,659.635L1595.44,659.132L1595.4,658.611L1595.37,658.081L1595.33,657.534L1595.29,656.961L1595.26,656.379L1595.22,655.794L1595.19,655.182L1595.16,654.542L1595.13,653.906L1595.09,653.261L1595.06,652.58L1595.03,651.892L1595.01,651.207L1594.98,650.501L1594.95,649.764L1594.93,649.03L1594.9,648.284L1594.88,647.525L1594.85,646.744L1594.83,645.963L1594.81,645.173L1594.79,644.342L1594.77,643.528L1594.75,642.712L1594.74,641.868L1594.72,641.006L1594.7,640.144L1594.69,639.281L1594.68,638.394L1594.67,637.504L1594.66,636.623L1594.65,635.72L1594.64,634.812L1594.63,633.892L1594.63,632.951L1594.62,632.037L1594.62,631.13L1594.62,630.177L1594.62,629.401L1594.62,607.582L1594.62,606.814L1594.62,605.868L1594.62,604.946L1594.63,604.047L1594.63,603.098L1594.64,602.175L1594.65,601.302L1594.66,600.406L1594.67,599.487L1594.68,598.596L1594.69,597.708L1594.7,596.85L1594.72,595.995L1594.74,595.145L1594.75,594.3L1594.77,593.461L1594.79,592.652L1594.81,591.825L1594.83,591.03L1594.85,590.264L1594.88,589.482L1594.9,588.71L1594.93,587.967L1594.95,587.233L1594.98,586.506L1595.01,585.79L1595.03,585.103L1595.06,584.427L1595.09,583.74L1595.13,583.083L1595.16,582.457L1595.19,581.821L1595.22,581.216L1595.26,580.621L1595.29,580.037L1595.33,579.467L1595.37,578.91L1595.4,578.394L1595.44,577.866L1595.48,577.365L1595.52,576.886L1595.56,576.412L1595.6,575.955L1595.64,575.524L1595.68,575.118L1595.72,574.719L1595.77,574.339L1595.81,573.975L1595.86,573.635L1595.9,573.321L1595.95,573.021L1595.99,572.738L1596.04,572.479L1596.09,572.243L1596.13,572.026L1596.18,571.83L1596.23,571.656L1596.28,571.506L1596.33,571.378L1596.38,571.273L1596.42,571.19L1596.48,571.131L1596.52,571.096L1596.57,571.086L1614.43,571.086L1614.48,571.096L1614.53,571.131L1614.58,571.191L1614.63,571.273L1614.67,571.378L1614.72,571.506L1614.77,571.657L1614.82,571.83L1614.87,572.025L1614.91,572.242L1614.96,572.479L1615.01,572.739L1615.05,573.02L1615.1,573.319ZM1614.6,597.484L1614.58,597.408L1614.57,597.339L1614.56,597.275L1614.54,597.219L1614.53,597.168L1614.51,597.124L1614.5,597.086L1614.49,597.056L1614.47,597.031L1614.45,597.014L1614.44,597.004L1614.43,597L1596.57,597L1596.56,597.004L1596.55,597.014L1596.53,597.031L1596.52,597.056L1596.5,597.086L1596.49,597.124L1596.47,597.168L1596.46,597.219L1596.44,597.275L1596.43,597.339L1596.42,597.408L1596.4,597.484L1596.39,597.565L1596.38,597.653L1596.36,597.746L1596.35,597.845L1596.34,597.95L1596.33,598.061L1596.31,598.177L1596.3,598.298L1596.29,598.425L1596.28,598.557L1596.27,598.695L1596.25,598.837L1596.24,598.984L1596.23,599.137L1596.22,599.294L1596.21,599.456L1596.2,599.623L1596.19,599.794L1596.18,599.97L1596.17,600.15L1596.16,600.335L1596.15,600.524L1596.14,600.717L1596.13,600.914L1596.12,601.115L1596.11,601.32L1596.11,601.529L1596.1,601.741L1596.09,601.958L1596.08,602.177L1596.08,602.401L1596.07,602.628L1596.06,602.858L1596.06,603.091L1596.05,603.328L1596.05,603.567L1596.04,603.81L1596.04,604.055L1596.03,604.304L1596.03,604.555L1596.02,604.808L1596.02,605.065L1596.02,605.323L1596.01,605.585L1596.01,605.848L1596.01,606.114L1596.01,606.382L1596,606.652L1596,606.923L1596,607.197L1596,607.473L1596,607.75L1596,629.25L1596,629.527L1596,629.803L1596,630.077L1596,630.348L1596.01,630.618L1596.01,630.886L1596.01,631.152L1596.01,631.415L1596.02,631.677L1596.02,631.935L1596.02,632.192L1596.03,632.445L1596.03,632.696L1596.04,632.945L1596.04,633.19L1596.05,633.433L1596.05,633.672L1596.06,633.909L1596.06,634.142L1596.07,634.372L1596.08,634.599L1596.08,634.823L1596.09,635.042L1596.1,635.259L1596.11,635.471L1596.11,635.68L1596.12,635.885L1596.13,636.086L1596.14,636.283L1596.15,636.476L1596.16,636.665L1596.17,636.85L1596.18,637.03L1596.19,637.206L1596.2,637.377L1596.21,637.544L1596.22,637.706L1596.23,637.863L1596.24,638.016L1596.25,638.163L1596.27,638.305L1596.28,638.443L1596.29,638.575L1596.3,638.702L1596.31,638.823L1596.33,638.939L1596.34,639.05L1596.35,639.155L1596.36,639.254L1596.38,639.347L1596.39,639.435L1596.4,639.516L1596.42,639.592L1596.43,639.661L1596.44,639.725L1596.46,639.781L1596.47,639.832L1596.49,639.876L1596.5,639.914L1596.52,639.944L1596.53,639.969L1596.55,639.986L1596.56,639.996L1596.57,640L1614.43,640L1614.44,639.996L1614.45,639.986L1614.47,639.969L1614.49,639.944L1614.5,639.914L1614.51,639.876L1614.53,639.832L1614.54,639.781L1614.56,639.725L1614.57,639.661L1614.58,639.592L1614.6,639.516L1614.61,639.435L1614.62,639.347L1614.64,639.254L1614.65,639.155L1614.66,639.05L1614.67,638.939L1614.69,638.823L1614.7,638.702L1614.71,638.575L1614.72,638.443L1614.74,638.305L1614.75,638.163L1614.76,638.016L1614.77,637.863L1614.78,637.706L1614.79,637.544L1614.8,637.377L1614.81,637.206L1614.82,637.03L1614.83,636.85L1614.84,636.665L1614.85,636.476L1614.86,636.283L1614.87,636.086L1614.88,635.885L1614.89,635.68L1614.89,635.471L1614.9,635.259L1614.91,635.042L1614.92,634.823L1614.92,634.599L1614.93,634.372L1614.94,634.142L1614.94,633.909L1614.95,633.672L1614.95,633.433L1614.96,633.19L1614.97,632.945L1614.97,632.696L1614.97,632.445L1614.98,632.192L1614.98,631.935L1614.99,631.677L1614.99,631.415L1614.99,631.152L1614.99,630.886L1615,630.618L1615,630.348L1615,630.077L1615,629.803L1615,629.527L1615,629.25L1615,607.75L1615,607.473L1615,607.197L1615,606.923L1615,606.652L1615,606.382L1614.99,606.114L1614.99,605.848L1614.99,605.585L1614.99,605.323L1614.98,605.065L1614.98,604.808L1614.97,604.555L1614.97,604.304L1614.97,604.055L1614.96,603.81L1614.95,603.567L1614.95,603.328L1614.94,603.091L1614.94,602.858L1614.93,602.628L1614.92,602.401L1614.92,602.177L1614.91,601.958L1614.9,601.741L1614.89,601.529L1614.89,601.32L1614.88,601.115L1614.87,600.914L1614.86,600.717L1614.85,600.524L1614.84,600.335L1614.83,600.15L1614.82,599.97L1614.81,599.794L1614.8,599.623L1614.79,599.456L1614.78,599.294L1614.77,599.137L1614.76,598.984L1614.75,598.837L1614.74,598.695L1614.72,598.557L1614.71,598.425L1614.7,598.298L1614.69,598.177L1614.67,598.061L1614.66,597.95L1614.65,597.845L1614.64,597.746L1614.62,597.653L1614.61,597.565L1614.6,597.484Z" style="fill:rgb(55,55,55);"/>
                </g>
                <g transform="matrix(1,0,0,0.875395,0,-18.1162)">
                    <path d="M844.488,-151.792L993.636,-151.792C994.741,-151.789 995.629,-151.194 995.629,-150.462L995.629,-147.8C995.629,-147.067 994.741,-146.472 993.636,-146.469L930.45,-146.469L930.45,-146.166L976.447,-143.099C977.301,-143.042 977.905,-142.535 977.794,-141.966L977.392,-139.906C977.281,-139.338 976.497,-138.922 975.644,-138.979L923.098,-142.482L844.488,-142.482C842.564,-142.482 841.002,-143.525 841.002,-144.81L841.002,-149.465C841.002,-150.748 842.56,-151.789 844.488,-151.792Z" style="fill:rgb(136,85,67);"/>
                    <path d="M993.796,-154.249L993.939,-154.245L994.082,-154.239L994.224,-154.23L994.366,-154.219L994.507,-154.205L994.647,-154.189L994.787,-154.171L994.924,-154.151L995.061,-154.129L995.196,-154.104L995.33,-154.077L995.463,-154.048L995.595,-154.017L995.724,-153.984L995.852,-153.949L995.98,-153.912L996.104,-153.873L996.228,-153.832L996.349,-153.788L996.468,-153.744L996.585,-153.698L996.702,-153.649L996.816,-153.599L996.928,-153.547L997.038,-153.493L997.144,-153.439L997.25,-153.382L997.354,-153.323L997.455,-153.263L997.555,-153.201L997.651,-153.138L997.746,-153.073L997.839,-153.007L997.927,-152.94L998.016,-152.87L998.101,-152.799L998.183,-152.727L998.264,-152.654L998.341,-152.579L998.415,-152.504L998.488,-152.426L998.559,-152.346L998.625,-152.267L998.689,-152.186L998.75,-152.103L998.809,-152.02L998.864,-151.935L998.917,-151.849L998.966,-151.762L999.012,-151.674L999.055,-151.587L999.096,-151.496L999.132,-151.405L999.166,-151.313L999.196,-151.221L999.222,-151.128L999.245,-151.035L999.265,-150.94L999.282,-150.845L999.294,-150.75L999.303,-150.654L999.309,-150.558L999.31,-150.477L999.31,-147.784L999.309,-147.703L999.303,-147.608L999.294,-147.512L999.282,-147.417L999.265,-147.321L999.245,-147.226L999.222,-147.133L999.196,-147.041L999.166,-146.948L999.132,-146.857L999.096,-146.766L999.055,-146.675L999.012,-146.587L998.966,-146.5L998.917,-146.412L998.864,-146.327L998.809,-146.242L998.75,-146.158L998.689,-146.075L998.625,-145.995L998.559,-145.915L998.488,-145.836L998.415,-145.758L998.341,-145.683L998.264,-145.608L998.183,-145.534L998.101,-145.463L998.015,-145.391L997.927,-145.322L997.839,-145.255L997.746,-145.188L997.651,-145.124L997.555,-145.061L997.455,-144.998L997.354,-144.939L997.251,-144.88L997.144,-144.823L997.038,-144.768L996.928,-144.715L996.815,-144.663L996.702,-144.613L996.585,-144.564L996.468,-144.518L996.349,-144.473L996.228,-144.43L996.104,-144.389L995.98,-144.35L995.852,-144.313L995.724,-144.277L995.595,-144.245L995.463,-144.213L995.33,-144.184L995.196,-144.158L995.061,-144.133L994.924,-144.11L994.787,-144.09L994.648,-144.072L994.507,-144.056L994.366,-144.043L994.224,-144.032L994.082,-144.023L993.939,-144.017L993.795,-144.013L993.666,-144.011L980.628,-144.011L980.663,-143.976L980.73,-143.904L980.795,-143.831L980.858,-143.757L980.917,-143.681L980.975,-143.604L981.028,-143.528L981.08,-143.449L981.129,-143.369L981.175,-143.288L981.217,-143.207L981.256,-143.126L981.293,-143.043L981.327,-142.959L981.357,-142.876L981.385,-142.789L981.409,-142.704L981.43,-142.619L981.448,-142.532L981.463,-142.443L981.474,-142.355L981.482,-142.269L981.487,-142.18L981.488,-142.092L981.486,-142.004L981.481,-141.914L981.472,-141.825L981.46,-141.737L981.447,-141.665L981.039,-139.573L981.024,-139.501L981.001,-139.414L980.976,-139.326L980.947,-139.239L980.916,-139.155L980.881,-139.069L980.842,-138.985L980.803,-138.904L980.759,-138.822L980.712,-138.74L980.663,-138.662L980.612,-138.584L980.556,-138.505L980.499,-138.43L980.44,-138.355L980.377,-138.28L980.313,-138.209L980.246,-138.138L980.175,-138.067L980.105,-137.999L980.032,-137.932L979.955,-137.866L979.876,-137.8L979.796,-137.737L979.716,-137.677L979.63,-137.615L979.543,-137.556L979.457,-137.5L979.367,-137.443L979.275,-137.388L979.181,-137.335L979.085,-137.282L978.988,-137.233L978.89,-137.184L978.789,-137.137L978.686,-137.09L978.582,-137.046L978.477,-137.004L978.37,-136.963L978.262,-136.924L978.15,-136.885L978.037,-136.849L977.925,-136.815L977.81,-136.782L977.694,-136.751L977.577,-136.722L977.457,-136.695L977.335,-136.669L977.215,-136.645L977.093,-136.623L976.967,-136.603L976.842,-136.585L976.716,-136.569L976.59,-136.556L976.461,-136.544L976.331,-136.534L976.201,-136.526L976.071,-136.52L975.94,-136.517L975.808,-136.516L975.676,-136.517L975.543,-136.52L975.411,-136.525L975.301,-136.532L922.915,-140.024L844.464,-140.024L844.305,-140.026L844.122,-140.03L843.94,-140.038L843.759,-140.049L843.579,-140.062L843.401,-140.079L843.223,-140.099L843.047,-140.121L842.872,-140.147L842.699,-140.175L842.527,-140.206L842.357,-140.24L842.189,-140.276L842.023,-140.315L841.859,-140.357L841.697,-140.401L841.536,-140.448L841.378,-140.498L841.222,-140.549L841.069,-140.603L840.918,-140.66L840.768,-140.719L840.622,-140.78L840.478,-140.843L840.337,-140.909L840.198,-140.976L840.061,-141.046L839.927,-141.118L839.797,-141.192L839.668,-141.268L839.542,-141.346L839.421,-141.426L839.301,-141.508L839.183,-141.592L839.07,-141.678L838.96,-141.765L838.852,-141.854L838.747,-141.945L838.645,-142.038L838.547,-142.133L838.453,-142.228L838.361,-142.327L838.273,-142.426L838.188,-142.527L838.107,-142.629L838.03,-142.734L837.956,-142.839L837.886,-142.946L837.82,-143.054L837.757,-143.164L837.699,-143.275L837.644,-143.387L837.593,-143.501L837.546,-143.616L837.505,-143.731L837.466,-143.847L837.433,-143.965L837.403,-144.084L837.378,-144.203L837.358,-144.323L837.341,-144.444L837.33,-144.566L837.323,-144.688L837.321,-144.794L837.321,-149.48L837.323,-149.587L837.33,-149.709L837.341,-149.83L837.357,-149.951L837.378,-150.07L837.403,-150.189L837.432,-150.309L837.466,-150.426L837.504,-150.542L837.546,-150.658L837.593,-150.773L837.643,-150.886L837.698,-150.998L837.756,-151.109L837.818,-151.218L837.885,-151.326L837.955,-151.434L838.029,-151.539L838.106,-151.643L838.187,-151.746L838.272,-151.847L838.359,-151.946L838.451,-152.044L838.546,-152.14L838.644,-152.234L838.745,-152.327L838.85,-152.419L838.957,-152.507L839.067,-152.595L839.182,-152.681L839.298,-152.764L839.417,-152.846L839.54,-152.926L839.666,-153.004L839.794,-153.08L839.925,-153.154L840.059,-153.226L840.195,-153.296L840.334,-153.363L840.475,-153.429L840.619,-153.492L840.765,-153.553L840.914,-153.612L841.065,-153.669L841.219,-153.723L841.374,-153.775L841.532,-153.824L841.692,-153.871L841.855,-153.915L842.019,-153.957L842.184,-153.996L842.352,-154.033L842.522,-154.067L842.693,-154.098L842.866,-154.126L843.041,-154.152L843.217,-154.174L843.394,-154.194L843.572,-154.211L843.752,-154.225L843.933,-154.236L844.114,-154.244L844.296,-154.249L844.46,-154.25L993.667,-154.25L993.796,-154.249ZM844.488,-151.792L844.398,-151.791L844.308,-151.789L844.219,-151.785L844.131,-151.78L844.043,-151.773L843.956,-151.765L843.87,-151.755L843.784,-151.744L843.7,-151.732L843.616,-151.718L843.532,-151.703L843.45,-151.686L843.369,-151.669L843.288,-151.65L843.208,-151.629L843.13,-151.608L843.052,-151.585L842.975,-151.561L842.899,-151.536L842.825,-151.509L842.751,-151.482L842.679,-151.453L842.608,-151.424L842.537,-151.393L842.469,-151.361L842.401,-151.328L842.334,-151.294L842.269,-151.259L842.205,-151.223L842.143,-151.185L842.082,-151.147L842.022,-151.108L841.963,-151.068L841.906,-151.028L841.851,-150.986L841.797,-150.943L841.745,-150.9L841.694,-150.855L841.644,-150.81L841.597,-150.764L841.55,-150.717L841.506,-150.67L841.463,-150.621L841.422,-150.572L841.383,-150.523L841.345,-150.472L841.309,-150.421L841.276,-150.369L841.243,-150.317L841.213,-150.264L841.185,-150.21L841.159,-150.156L841.134,-150.101L841.112,-150.045L841.091,-149.989L841.073,-149.933L841.056,-149.876L841.042,-149.819L841.03,-149.761L841.02,-149.702L841.012,-149.643L841.007,-149.584L841.003,-149.525L841.002,-149.465L841.002,-144.81L841.003,-144.75L841.007,-144.69L841.012,-144.631L841.02,-144.572L841.03,-144.514L841.042,-144.456L841.057,-144.398L841.073,-144.341L841.091,-144.284L841.112,-144.228L841.134,-144.173L841.159,-144.118L841.185,-144.064L841.214,-144.01L841.244,-143.957L841.276,-143.904L841.31,-143.852L841.346,-143.801L841.384,-143.751L841.423,-143.701L841.464,-143.652L841.507,-143.603L841.552,-143.556L841.598,-143.509L841.646,-143.463L841.695,-143.418L841.746,-143.373L841.798,-143.33L841.852,-143.287L841.908,-143.245L841.965,-143.204L842.023,-143.164L842.083,-143.125L842.145,-143.087L842.207,-143.05L842.271,-143.014L842.336,-142.979L842.403,-142.945L842.47,-142.912L842.539,-142.88L842.61,-142.849L842.681,-142.819L842.753,-142.791L842.827,-142.763L842.901,-142.737L842.977,-142.712L843.054,-142.688L843.131,-142.665L843.21,-142.644L843.29,-142.624L843.37,-142.605L843.452,-142.587L843.534,-142.571L843.617,-142.556L843.701,-142.542L843.786,-142.53L843.871,-142.519L843.957,-142.509L844.044,-142.501L844.131,-142.494L844.22,-142.489L844.308,-142.485L844.398,-142.483L844.488,-142.482L923.098,-142.482L975.644,-138.979L975.684,-138.977L975.723,-138.975L975.763,-138.974L975.803,-138.974L975.842,-138.974L975.881,-138.975L975.92,-138.977L975.959,-138.979L975.998,-138.982L976.036,-138.986L976.075,-138.99L976.112,-138.995L976.15,-139L976.187,-139.006L976.225,-139.013L976.261,-139.02L976.298,-139.028L976.334,-139.036L976.37,-139.045L976.405,-139.054L976.44,-139.064L976.475,-139.075L976.509,-139.086L976.543,-139.098L976.576,-139.11L976.609,-139.122L976.641,-139.135L976.673,-139.149L976.705,-139.163L976.736,-139.178L976.766,-139.193L976.796,-139.208L976.826,-139.224L976.854,-139.24L976.883,-139.257L976.91,-139.275L976.937,-139.292L976.964,-139.31L976.99,-139.329L977.015,-139.348L977.04,-139.367L977.063,-139.387L977.087,-139.407L977.109,-139.428L977.131,-139.449L977.152,-139.47L977.172,-139.491L977.192,-139.513L977.211,-139.536L977.229,-139.558L977.246,-139.581L977.262,-139.605L977.278,-139.628L977.293,-139.652L977.307,-139.676L977.32,-139.701L977.332,-139.725L977.343,-139.75L977.354,-139.776L977.363,-139.801L977.372,-139.827L977.379,-139.853L977.386,-139.88L977.392,-139.906L977.794,-141.966L977.798,-141.993L977.802,-142.019L977.805,-142.046L977.806,-142.072L977.807,-142.098L977.806,-142.124L977.805,-142.15L977.803,-142.176L977.799,-142.201L977.795,-142.227L977.79,-142.252L977.784,-142.277L977.777,-142.302L977.769,-142.326L977.76,-142.351L977.75,-142.375L977.74,-142.399L977.728,-142.423L977.716,-142.446L977.703,-142.469L977.689,-142.492L977.674,-142.515L977.658,-142.537L977.642,-142.559L977.624,-142.581L977.606,-142.603L977.587,-142.624L977.568,-142.645L977.548,-142.665L977.527,-142.685L977.505,-142.705L977.482,-142.725L977.459,-142.744L977.435,-142.762L977.411,-142.78L977.385,-142.798L977.359,-142.816L977.333,-142.833L977.306,-142.849L977.278,-142.866L977.249,-142.881L977.22,-142.897L977.191,-142.911L977.16,-142.926L977.13,-142.94L977.098,-142.953L977.066,-142.966L977.034,-142.978L977.001,-142.99L976.967,-143.001L976.933,-143.012L976.898,-143.022L976.863,-143.032L976.828,-143.041L976.791,-143.05L976.755,-143.058L976.718,-143.065L976.681,-143.072L976.643,-143.078L976.604,-143.083L976.566,-143.088L976.527,-143.093L976.487,-143.096L976.447,-143.099L930.45,-146.166L930.45,-146.469L993.636,-146.469L993.688,-146.47L993.739,-146.471L993.79,-146.474L993.841,-146.477L993.891,-146.481L993.941,-146.485L993.99,-146.491L994.039,-146.497L994.088,-146.504L994.136,-146.512L994.183,-146.521L994.23,-146.53L994.277,-146.541L994.323,-146.552L994.369,-146.563L994.414,-146.575L994.458,-146.589L994.502,-146.602L994.545,-146.617L994.588,-146.632L994.63,-146.647L994.671,-146.664L994.712,-146.681L994.752,-146.699L994.792,-146.717L994.83,-146.736L994.868,-146.755L994.906,-146.775L994.942,-146.796L994.978,-146.817L995.013,-146.839L995.047,-146.861L995.08,-146.884L995.113,-146.907L995.144,-146.931L995.175,-146.956L995.205,-146.98L995.234,-147.006L995.263,-147.032L995.29,-147.058L995.316,-147.085L995.342,-147.112L995.366,-147.139L995.389,-147.167L995.412,-147.196L995.433,-147.225L995.454,-147.254L995.473,-147.283L995.491,-147.313L995.509,-147.344L995.525,-147.374L995.54,-147.405L995.554,-147.437L995.567,-147.468L995.578,-147.5L995.589,-147.533L995.598,-147.565L995.606,-147.598L995.613,-147.631L995.619,-147.664L995.623,-147.698L995.627,-147.732L995.629,-147.766L995.629,-147.8L995.629,-150.462L995.629,-150.496L995.627,-150.53L995.623,-150.564L995.619,-150.597L995.613,-150.63L995.606,-150.664L995.598,-150.696L995.589,-150.729L995.578,-150.761L995.567,-150.793L995.554,-150.825L995.54,-150.856L995.525,-150.887L995.509,-150.918L995.491,-150.948L995.473,-150.978L995.454,-151.008L995.433,-151.037L995.412,-151.066L995.389,-151.094L995.366,-151.122L995.342,-151.15L995.316,-151.177L995.29,-151.204L995.263,-151.23L995.234,-151.256L995.205,-151.281L995.175,-151.306L995.144,-151.33L995.113,-151.354L995.08,-151.378L995.047,-151.4L995.013,-151.423L994.978,-151.445L994.942,-151.466L994.906,-151.486L994.868,-151.506L994.83,-151.526L994.792,-151.545L994.752,-151.563L994.712,-151.581L994.671,-151.598L994.63,-151.614L994.588,-151.63L994.545,-151.645L994.502,-151.659L994.458,-151.673L994.414,-151.686L994.369,-151.698L994.323,-151.71L994.277,-151.721L994.23,-151.731L994.183,-151.741L994.136,-151.749L994.088,-151.757L994.039,-151.764L993.99,-151.771L993.941,-151.776L993.891,-151.781L993.841,-151.785L993.79,-151.788L993.739,-151.79L993.688,-151.792L993.636,-151.792L926.964,-151.792L844.488,-151.792Z" style="fill:rgb(70,60,60);"/>
                </g>
                <g transform="matrix(1.66734,0,0,0.108255,-1851.75,-214.093)">
                    <path d="M1615,607.75C1615,601.817 1614.47,597 1613.81,597L1597.19,597C1596.54,597 1596,601.817 1596,607.75L1596,629.25C1596,635.183 1596.54,640 1597.19,640L1613.81,640C1614.47,640 1615,635.183 1615,629.25L1615,607.75Z" style="fill:rgb(92,63,53);"/>
                    <path d="M1613.89,577.131L1613.98,577.161L1614.07,577.21L1614.15,577.279L1614.24,577.367L1614.32,577.474L1614.41,577.6L1614.49,577.744L1614.57,577.907L1614.65,578.088L1614.74,578.287L1614.82,578.503L1614.9,578.737L1614.98,578.987L1615.05,579.256L1615.13,579.539L1615.21,579.837L1615.28,580.155L1615.36,580.486L1615.43,580.833L1615.5,581.195L1615.57,581.57L1615.64,581.961L1615.71,582.366L1615.78,582.786L1615.84,583.22L1615.91,583.664L1615.97,584.126L1616.03,584.601L1616.09,585.082L1616.15,585.579L1616.21,586.094L1616.27,586.617L1616.32,587.151L1616.38,587.704L1616.43,588.265L1616.48,588.826L1616.53,589.408L1616.58,590.011L1616.63,590.614L1616.67,591.223L1616.71,591.853L1616.76,592.488L1616.8,593.128L1616.83,593.79L1616.87,594.463L1616.91,595.132L1616.94,595.816L1616.97,596.519L1617,597.215L1617.03,597.924L1617.06,598.654L1617.08,599.376L1617.1,600.1L1617.12,600.843L1617.14,601.595L1617.15,602.349L1617.17,603.111L1617.18,603.872L1617.19,604.641L1617.2,605.418L1617.2,606.192L1617.21,606.972L1617.21,607.625L1617.21,629.375L1617.21,630.028L1617.2,630.808L1617.2,631.582L1617.19,632.359L1617.18,633.128L1617.17,633.889L1617.15,634.651L1617.14,635.405L1617.12,636.158L1617.1,636.9L1617.08,637.623L1617.06,638.346L1617.03,639.076L1617,639.785L1616.97,640.481L1616.94,641.185L1616.91,641.867L1616.87,642.536L1616.83,643.211L1616.8,643.872L1616.76,644.513L1616.71,645.148L1616.67,645.778L1616.63,646.385L1616.58,646.988L1616.53,647.592L1616.48,648.174L1616.43,648.735L1616.38,649.296L1616.32,649.849L1616.27,650.383L1616.21,650.908L1616.15,651.421L1616.09,651.917L1616.03,652.399L1615.97,652.875L1615.91,653.337L1615.84,653.778L1615.78,654.213L1615.71,654.634L1615.64,655.039L1615.57,655.431L1615.5,655.805L1615.43,656.166L1615.36,656.515L1615.28,656.846L1615.21,657.162L1615.13,657.461L1615.05,657.745L1614.98,658.013L1614.9,658.263L1614.82,658.496L1614.74,658.713L1614.65,658.913L1614.57,659.093L1614.49,659.255L1614.41,659.4L1614.32,659.526L1614.24,659.633L1614.15,659.721L1614.07,659.79L1613.98,659.839L1613.89,659.869L1613.82,659.877L1597.18,659.877L1597.11,659.869L1597.02,659.839L1596.93,659.79L1596.85,659.721L1596.76,659.633L1596.68,659.526L1596.59,659.4L1596.51,659.255L1596.43,659.093L1596.35,658.913L1596.26,658.713L1596.18,658.497L1596.1,658.264L1596.02,658.012L1595.95,657.745L1595.87,657.461L1595.79,657.16L1595.72,656.846L1595.64,656.515L1595.57,656.168L1595.5,655.807L1595.43,655.429L1595.36,655.036L1595.29,654.634L1595.22,654.213L1595.16,653.782L1595.09,653.337L1595.03,652.875L1594.97,652.404L1594.91,651.912L1594.85,651.416L1594.79,650.908L1594.73,650.383L1594.68,649.849L1594.62,649.302L1594.57,648.741L1594.52,648.167L1594.47,647.585L1594.42,646.994L1594.38,646.392L1594.33,645.77L1594.29,645.148L1594.24,644.513L1594.2,643.864L1594.17,643.211L1594.13,642.536L1594.09,641.867L1594.06,641.185L1594.03,640.481L1594,639.785L1593.97,639.076L1593.95,638.355L1593.92,637.623L1593.9,636.891L1593.88,636.158L1593.86,635.405L1593.85,634.651L1593.83,633.889L1593.82,633.128L1593.81,632.359L1593.8,631.582L1593.8,630.818L1593.79,630.037L1593.79,629.375L1593.79,607.625L1593.79,606.963L1593.8,606.182L1593.8,605.418L1593.81,604.641L1593.82,603.872L1593.83,603.111L1593.85,602.349L1593.86,601.595L1593.88,600.843L1593.9,600.109L1593.92,599.376L1593.95,598.645L1593.97,597.924L1594,597.215L1594.03,596.519L1594.06,595.816L1594.09,595.132L1594.13,594.463L1594.17,593.79L1594.2,593.136L1594.24,592.487L1594.29,591.853L1594.33,591.231L1594.38,590.607L1594.42,590.004L1594.47,589.415L1594.52,588.833L1594.57,588.259L1594.62,587.698L1594.68,587.151L1594.73,586.617L1594.79,586.094L1594.85,585.584L1594.91,585.087L1594.97,584.596L1595.03,584.126L1595.09,583.664L1595.16,583.217L1595.22,582.786L1595.29,582.366L1595.36,581.964L1595.43,581.573L1595.5,581.193L1595.57,580.831L1595.64,580.486L1595.72,580.155L1595.79,579.839L1595.87,579.539L1595.95,579.256L1596.02,578.988L1596.1,578.736L1596.18,578.503L1596.26,578.287L1596.35,578.088L1596.43,577.907L1596.51,577.744L1596.59,577.6L1596.68,577.474L1596.76,577.367L1596.85,577.279L1596.93,577.21L1597.02,577.161L1597.11,577.131L1597.18,577.123L1613.82,577.123L1613.89,577.131ZM1597.19,597L1597.16,597.004L1597.13,597.014L1597.1,597.031L1597.07,597.056L1597.04,597.086L1597.01,597.124L1596.98,597.168L1596.95,597.219L1596.92,597.275L1596.9,597.339L1596.87,597.408L1596.84,597.484L1596.81,597.565L1596.78,597.653L1596.76,597.746L1596.73,597.845L1596.7,597.95L1596.68,598.061L1596.65,598.177L1596.63,598.298L1596.6,598.425L1596.58,598.557L1596.55,598.695L1596.53,598.837L1596.5,598.984L1596.48,599.137L1596.46,599.294L1596.43,599.456L1596.41,599.623L1596.39,599.794L1596.37,599.97L1596.35,600.15L1596.33,600.335L1596.31,600.524L1596.29,600.717L1596.27,600.914L1596.26,601.115L1596.24,601.32L1596.22,601.529L1596.2,601.741L1596.19,601.958L1596.17,602.177L1596.16,602.401L1596.14,602.628L1596.13,602.858L1596.12,603.091L1596.11,603.328L1596.09,603.567L1596.08,603.81L1596.07,604.055L1596.06,604.304L1596.05,604.555L1596.05,604.808L1596.04,605.065L1596.03,605.323L1596.02,605.585L1596.02,605.848L1596.01,606.114L1596.01,606.382L1596.01,606.652L1596,606.923L1596,607.197L1596,607.473L1596,607.75L1596,629.25L1596,629.527L1596,629.803L1596,630.077L1596.01,630.348L1596.01,630.618L1596.01,630.886L1596.02,631.152L1596.02,631.415L1596.03,631.677L1596.04,631.935L1596.05,632.192L1596.05,632.445L1596.06,632.696L1596.07,632.945L1596.08,633.19L1596.09,633.433L1596.11,633.672L1596.12,633.909L1596.13,634.142L1596.14,634.372L1596.16,634.599L1596.17,634.823L1596.19,635.042L1596.2,635.259L1596.22,635.471L1596.24,635.68L1596.26,635.885L1596.27,636.086L1596.29,636.283L1596.31,636.476L1596.33,636.665L1596.35,636.85L1596.37,637.03L1596.39,637.206L1596.41,637.377L1596.43,637.544L1596.46,637.706L1596.48,637.863L1596.5,638.016L1596.53,638.163L1596.55,638.305L1596.58,638.443L1596.6,638.575L1596.63,638.702L1596.65,638.823L1596.68,638.939L1596.7,639.05L1596.73,639.155L1596.76,639.254L1596.78,639.347L1596.81,639.435L1596.84,639.516L1596.87,639.592L1596.9,639.661L1596.92,639.725L1596.95,639.781L1596.98,639.832L1597.01,639.876L1597.04,639.914L1597.07,639.944L1597.1,639.969L1597.13,639.986L1597.16,639.996L1597.19,640L1613.81,640L1613.84,639.996L1613.87,639.986L1613.9,639.969L1613.93,639.944L1613.96,639.914L1613.99,639.876L1614.02,639.832L1614.05,639.781L1614.08,639.725L1614.1,639.661L1614.13,639.592L1614.16,639.516L1614.19,639.435L1614.22,639.347L1614.24,639.254L1614.27,639.155L1614.3,639.05L1614.32,638.939L1614.35,638.823L1614.38,638.702L1614.4,638.575L1614.42,638.443L1614.45,638.305L1614.47,638.163L1614.5,638.016L1614.52,637.863L1614.54,637.706L1614.57,637.544L1614.59,637.377L1614.61,637.206L1614.63,637.03L1614.65,636.85L1614.67,636.665L1614.69,636.476L1614.71,636.283L1614.73,636.086L1614.75,635.885L1614.76,635.68L1614.78,635.471L1614.8,635.259L1614.81,635.042L1614.83,634.823L1614.84,634.599L1614.86,634.372L1614.87,634.142L1614.88,633.909L1614.89,633.672L1614.91,633.433L1614.92,633.19L1614.93,632.945L1614.94,632.696L1614.95,632.445L1614.95,632.192L1614.96,631.935L1614.97,631.677L1614.98,631.415L1614.98,631.152L1614.99,630.886L1614.99,630.618L1614.99,630.348L1615,630.077L1615,629.803L1615,629.527L1615,629.25L1615,607.75L1615,607.473L1615,607.197L1615,606.923L1614.99,606.652L1614.99,606.382L1614.99,606.114L1614.98,605.848L1614.98,605.585L1614.97,605.323L1614.96,605.065L1614.95,604.808L1614.95,604.555L1614.94,604.304L1614.93,604.055L1614.92,603.81L1614.91,603.567L1614.89,603.328L1614.88,603.091L1614.87,602.858L1614.86,602.628L1614.84,602.401L1614.83,602.177L1614.81,601.958L1614.8,601.741L1614.78,601.529L1614.76,601.32L1614.75,601.115L1614.73,600.914L1614.71,600.717L1614.69,600.524L1614.67,600.335L1614.65,600.15L1614.63,599.97L1614.61,599.794L1614.59,599.623L1614.57,599.456L1614.54,599.294L1614.52,599.137L1614.5,598.984L1614.47,598.837L1614.45,598.695L1614.42,598.557L1614.4,598.425L1614.38,598.298L1614.35,598.177L1614.32,598.061L1614.3,597.95L1614.27,597.845L1614.24,597.746L1614.22,597.653L1614.19,597.565L1614.16,597.484L1614.13,597.408L1614.1,597.339L1614.08,597.275L1614.05,597.219L1614.02,597.168L1613.99,597.124L1613.96,597.086L1613.93,597.056L1613.9,597.031L1613.87,597.014L1613.84,597.004L1613.81,597L1597.19,597Z" style="fill:rgb(54,54,54);"/>
                </g>
                <g transform="matrix(0.500598,0,0,0.598529,37.33,-517.328)">
                    <path d="M1615,599.322C1615,598.041 1612.87,597 1610.25,597L1600.75,597C1598.13,597 1596,598.041 1596,599.322L1596,637.678C1596,638.959 1598.13,640 1600.75,640L1610.25,640C1612.87,640 1615,638.959 1615,637.678L1615,599.322Z" style="fill:rgb(147,118,63);"/>
                    <path d="M1610.56,593.406L1610.87,593.412L1611.17,593.422L1611.48,593.435L1611.78,593.452L1612.09,593.473L1612.38,593.497L1612.68,593.525L1612.98,593.556L1613.27,593.591L1613.56,593.63L1613.85,593.671L1614.13,593.717L1614.41,593.765L1614.69,593.817L1614.97,593.872L1615.24,593.929L1615.5,593.99L1615.77,594.055L1616.03,594.121L1616.28,594.192L1616.53,594.264L1616.78,594.339L1617.02,594.418L1617.26,594.499L1617.5,594.582L1617.73,594.669L1617.95,594.757L1618.17,594.85L1618.39,594.943L1618.6,595.039L1618.81,595.138L1619.01,595.239L1619.21,595.343L1619.4,595.45L1619.59,595.558L1619.77,595.666L1619.94,595.779L1620.12,595.894L1620.28,596.011L1620.44,596.131L1620.6,596.251L1620.74,596.373L1620.89,596.498L1621.02,596.625L1621.16,596.755L1621.28,596.886L1621.4,597.018L1621.51,597.15L1621.62,597.287L1621.72,597.426L1621.81,597.564L1621.89,597.704L1621.97,597.844L1622.04,597.987L1622.11,598.134L1622.16,598.279L1622.22,598.426L1622.26,598.573L1622.29,598.721L1622.32,598.872L1622.34,599.02L1622.35,599.171L1622.35,599.3L1622.35,637.7L1622.35,637.829L1622.34,637.98L1622.32,638.128L1622.29,638.279L1622.26,638.427L1622.22,638.574L1622.16,638.721L1622.11,638.866L1622.04,639.013L1621.97,639.156L1621.89,639.296L1621.81,639.436L1621.72,639.574L1621.62,639.713L1621.51,639.85L1621.4,639.982L1621.28,640.114L1621.16,640.245L1621.02,640.375L1620.89,640.502L1620.74,640.627L1620.6,640.749L1620.44,640.869L1620.28,640.989L1620.12,641.106L1619.94,641.221L1619.77,641.334L1619.59,641.442L1619.4,641.55L1619.21,641.657L1619.01,641.761L1618.81,641.862L1618.6,641.961L1618.39,642.057L1618.17,642.15L1617.95,642.243L1617.73,642.331L1617.5,642.418L1617.26,642.501L1617.02,642.582L1616.78,642.661L1616.53,642.736L1616.28,642.808L1616.03,642.879L1615.77,642.945L1615.5,643.01L1615.24,643.071L1614.97,643.128L1614.69,643.183L1614.41,643.235L1614.13,643.283L1613.85,643.329L1613.56,643.37L1613.27,643.409L1612.98,643.444L1612.68,643.475L1612.38,643.503L1612.09,643.527L1611.78,643.548L1611.48,643.565L1611.17,643.578L1610.87,643.588L1610.56,643.594L1610.3,643.595L1600.7,643.595L1600.44,643.594L1600.13,643.588L1599.83,643.578L1599.52,643.565L1599.22,643.548L1598.92,643.527L1598.62,643.503L1598.32,643.475L1598.02,643.444L1597.73,643.409L1597.44,643.37L1597.15,643.329L1596.87,643.283L1596.59,643.235L1596.31,643.183L1596.03,643.128L1595.77,643.071L1595.5,643.01L1595.23,642.945L1594.98,642.879L1594.72,642.809L1594.47,642.736L1594.22,642.66L1593.98,642.582L1593.74,642.501L1593.5,642.418L1593.27,642.331L1593.05,642.242L1592.83,642.151L1592.61,642.057L1592.4,641.96L1592.19,641.862L1591.99,641.761L1591.79,641.657L1591.6,641.552L1591.41,641.444L1591.23,641.333L1591.05,641.22L1590.88,641.106L1590.72,640.989L1590.56,640.871L1590.4,640.749L1590.25,640.625L1590.11,640.502L1589.98,640.375L1589.84,640.245L1589.72,640.116L1589.6,639.984L1589.49,639.848L1589.38,639.711L1589.29,639.576L1589.19,639.436L1589.11,639.296L1589.03,639.156L1588.96,639.011L1588.89,638.866L1588.84,638.721L1588.79,638.576L1588.74,638.427L1588.71,638.279L1588.68,638.13L1588.66,637.978L1588.65,637.829L1588.65,637.702L1588.65,599.298L1588.65,599.171L1588.66,599.022L1588.68,598.87L1588.71,598.721L1588.74,598.573L1588.79,598.424L1588.84,598.279L1588.89,598.134L1588.96,597.989L1589.03,597.844L1589.11,597.704L1589.19,597.564L1589.29,597.424L1589.38,597.289L1589.49,597.152L1589.6,597.016L1589.72,596.884L1589.84,596.755L1589.98,596.625L1590.11,596.498L1590.25,596.375L1590.4,596.251L1590.56,596.129L1590.72,596.011L1590.88,595.894L1591.05,595.78L1591.23,595.667L1591.41,595.557L1591.6,595.448L1591.79,595.343L1591.99,595.239L1592.19,595.138L1592.4,595.04L1592.61,594.943L1592.83,594.849L1593.05,594.758L1593.27,594.669L1593.5,594.582L1593.74,594.499L1593.98,594.418L1594.22,594.34L1594.47,594.264L1594.72,594.191L1594.98,594.121L1595.23,594.055L1595.5,593.99L1595.77,593.929L1596.03,593.872L1596.31,593.817L1596.59,593.765L1596.87,593.717L1597.15,593.671L1597.44,593.63L1597.73,593.591L1598.02,593.556L1598.32,593.525L1598.62,593.497L1598.92,593.473L1599.22,593.452L1599.52,593.435L1599.83,593.422L1600.13,593.412L1600.44,593.406L1600.7,593.405L1610.3,593.405L1610.56,593.406ZM1600.75,597L1600.63,597.001L1600.51,597.003L1600.38,597.007L1600.27,597.012L1600.14,597.019L1600.03,597.027L1599.91,597.036L1599.79,597.047L1599.68,597.06L1599.56,597.073L1599.45,597.088L1599.34,597.104L1599.23,597.122L1599.12,597.141L1599.01,597.161L1598.9,597.183L1598.8,597.205L1598.69,597.229L1598.59,597.254L1598.49,597.28L1598.39,597.308L1598.29,597.336L1598.19,597.366L1598.1,597.397L1598,597.429L1597.91,597.462L1597.82,597.496L1597.73,597.531L1597.64,597.567L1597.56,597.604L1597.47,597.642L1597.39,597.68L1597.31,597.72L1597.24,597.761L1597.16,597.803L1597.09,597.845L1597.01,597.889L1596.94,597.933L1596.88,597.978L1596.81,598.024L1596.75,598.071L1596.69,598.118L1596.63,598.167L1596.57,598.216L1596.52,598.265L1596.47,598.316L1596.42,598.367L1596.37,598.419L1596.33,598.471L1596.29,598.524L1596.25,598.578L1596.21,598.632L1596.18,598.687L1596.15,598.742L1596.12,598.798L1596.1,598.854L1596.07,598.911L1596.06,598.969L1596.04,599.027L1596.03,599.085L1596.01,599.144L1596.01,599.203L1596,599.262L1596,599.322L1596,637.678L1596,637.738L1596.01,637.797L1596.01,637.856L1596.03,637.915L1596.04,637.973L1596.06,638.031L1596.07,638.089L1596.1,638.146L1596.12,638.202L1596.15,638.258L1596.18,638.313L1596.21,638.368L1596.25,638.422L1596.29,638.476L1596.33,638.529L1596.37,638.581L1596.42,638.633L1596.47,638.684L1596.52,638.735L1596.57,638.784L1596.63,638.833L1596.69,638.882L1596.75,638.929L1596.81,638.976L1596.88,639.022L1596.94,639.067L1597.01,639.111L1597.09,639.155L1597.16,639.197L1597.24,639.239L1597.31,639.28L1597.39,639.32L1597.47,639.358L1597.56,639.396L1597.64,639.433L1597.73,639.469L1597.82,639.504L1597.91,639.538L1598,639.571L1598.1,639.603L1598.19,639.634L1598.29,639.664L1598.39,639.692L1598.49,639.72L1598.59,639.746L1598.69,639.771L1598.8,639.795L1598.9,639.817L1599.01,639.839L1599.12,639.859L1599.23,639.878L1599.34,639.896L1599.45,639.912L1599.56,639.927L1599.68,639.94L1599.79,639.953L1599.91,639.964L1600.03,639.973L1600.14,639.981L1600.27,639.988L1600.38,639.993L1600.51,639.997L1600.63,639.999L1600.75,640L1610.25,640L1610.37,639.999L1610.49,639.997L1610.62,639.993L1610.74,639.988L1610.86,639.981L1610.97,639.973L1611.09,639.964L1611.21,639.953L1611.32,639.94L1611.44,639.927L1611.55,639.912L1611.66,639.896L1611.77,639.878L1611.88,639.859L1611.99,639.839L1612.1,639.817L1612.2,639.795L1612.31,639.771L1612.41,639.746L1612.51,639.72L1612.61,639.692L1612.71,639.664L1612.81,639.634L1612.9,639.603L1613,639.571L1613.09,639.538L1613.18,639.504L1613.27,639.469L1613.36,639.433L1613.44,639.396L1613.53,639.358L1613.61,639.32L1613.69,639.28L1613.77,639.239L1613.84,639.197L1613.91,639.155L1613.99,639.111L1614.06,639.067L1614.12,639.022L1614.19,638.976L1614.25,638.929L1614.31,638.882L1614.37,638.833L1614.43,638.784L1614.48,638.735L1614.53,638.684L1614.58,638.633L1614.63,638.581L1614.67,638.529L1614.71,638.476L1614.75,638.422L1614.79,638.368L1614.82,638.313L1614.85,638.258L1614.88,638.202L1614.9,638.146L1614.93,638.089L1614.94,638.031L1614.96,637.973L1614.98,637.915L1614.99,637.856L1614.99,637.797L1615,637.738L1615,637.678L1615,599.322L1615,599.262L1614.99,599.203L1614.99,599.144L1614.98,599.085L1614.96,599.027L1614.94,598.969L1614.93,598.911L1614.9,598.854L1614.88,598.798L1614.85,598.742L1614.82,598.687L1614.79,598.632L1614.75,598.578L1614.71,598.524L1614.67,598.471L1614.63,598.419L1614.58,598.367L1614.53,598.316L1614.48,598.265L1614.43,598.216L1614.37,598.167L1614.31,598.118L1614.25,598.071L1614.19,598.024L1614.12,597.978L1614.06,597.933L1613.99,597.889L1613.91,597.845L1613.84,597.803L1613.77,597.761L1613.69,597.72L1613.61,597.68L1613.53,597.642L1613.44,597.604L1613.36,597.567L1613.27,597.531L1613.18,597.496L1613.09,597.462L1613,597.429L1612.9,597.397L1612.81,597.366L1612.71,597.336L1612.61,597.308L1612.51,597.28L1612.41,597.254L1612.31,597.229L1612.2,597.205L1612.1,597.183L1611.99,597.161L1611.88,597.141L1611.77,597.122L1611.66,597.104L1611.55,597.088L1611.44,597.073L1611.32,597.06L1611.21,597.047L1611.09,597.036L1610.97,597.027L1610.86,597.019L1610.74,597.012L1610.62,597.007L1610.49,597.003L1610.37,597.001L1610.25,597L1600.75,597Z" style="fill:rgb(110,76,39);"/>
                </g>
            </g>
        </g>
    </g>
</svg>
