<?xml version="1.0" encoding="UTF-8" standalone="no"?>
<!DOCTYPE svg PUBLIC "-//W3C//DTD SVG 1.1//EN" "http://www.w3.org/Graphics/SVG/1.1/DTD/svg11.dtd">
<svg width="100%" height="100%" viewBox="0 0 116 116" version="1.1" xmlns="http://www.w3.org/2000/svg" xmlns:xlink="http://www.w3.org/1999/xlink" xml:space="preserve" xmlns:serif="http://www.serif.com/" style="fill-rule:evenodd;clip-rule:evenodd;stroke-linejoin:round;stroke-miterlimit:1.41421;">
    <g transform="matrix(1,0,0,1,-492,-38)">
        <g transform="matrix(0.327083,0,0,0.175,0,0)">
            <g id="character" transform="matrix(3.74414e-16,11.4286,-6.11465,6.99798e-16,1981.15,-3428.57)">
                <path d="M342.633,30.733C343.65,28.7 345.727,27.416 348,27.416C350.273,27.416 352.35,28.7 353.367,30.733C358.927,41.854 367.51,59.019 372.658,69.317C373.588,71.177 373.489,73.385 372.396,75.154C371.302,76.923 369.371,78 367.292,78C356.575,78 339.425,78 328.708,78C326.629,78 324.698,76.923 323.604,75.154C322.511,73.385 322.412,71.177 323.342,69.317C328.49,59.019 337.073,41.854 342.633,30.733Z" style="fill:rgb(136,14,79);"/>
                <path d="M322.709,71.892L322.712,71.798L322.716,71.703L322.721,71.609L322.728,71.515L322.736,71.421L322.746,71.326L322.757,71.232L322.77,71.139L322.785,71.045L322.792,70.998L322.8,70.951L322.809,70.905L322.818,70.858L322.827,70.811L322.837,70.765L322.847,70.718L322.857,70.672L322.868,70.625L322.879,70.579L322.89,70.533L322.902,70.487L322.914,70.441L322.927,70.395L322.94,70.349L322.953,70.303L322.967,70.257L322.981,70.211L322.995,70.165L323.01,70.12L323.025,70.074L323.041,70.029L323.057,69.984L323.073,69.938L323.09,69.893L323.107,69.848L323.125,69.803L323.143,69.759L323.161,69.714L323.179,69.669L323.198,69.625L323.218,69.58L323.237,69.536L323.257,69.492L323.278,69.448L323.299,69.404L323.32,69.36L323.342,69.317L342.633,30.733L342.657,30.686L342.682,30.638L342.707,30.591L342.732,30.545L342.757,30.498L342.783,30.452L342.81,30.406L342.836,30.361L342.863,30.316L342.891,30.271L342.918,30.226L342.947,30.182L342.975,30.138L343.004,30.094L343.033,30.05L343.063,30.007L343.093,29.964L343.123,29.921L343.153,29.879L343.184,29.837L343.216,29.795L343.247,29.754L343.279,29.713L343.311,29.672L343.344,29.632L343.377,29.592L343.41,29.552L343.444,29.512L343.478,29.473L343.512,29.434L343.546,29.396L343.581,29.357L343.616,29.319L343.652,29.282L343.687,29.245L343.724,29.208L343.76,29.171L343.797,29.135L343.833,29.099L343.871,29.063L343.908,29.028L343.946,28.993L343.984,28.958L344.023,28.924L344.061,28.89L344.1,28.857L344.139,28.823L344.179,28.79L344.219,28.758L344.259,28.726L344.299,28.694L344.339,28.662L344.38,28.631L344.421,28.6L344.463,28.57L344.504,28.54L344.546,28.51L344.588,28.481L344.63,28.452L344.673,28.423L344.716,28.395L344.759,28.367L344.802,28.34L344.846,28.313L344.889,28.286L344.933,28.259L344.977,28.233L345.022,28.208L345.067,28.182L345.111,28.158L345.156,28.133L345.202,28.109L345.247,28.085L345.293,28.062L345.339,28.039L345.385,28.016L345.431,27.994L345.478,27.972L345.524,27.951L345.571,27.93L345.618,27.909L345.666,27.889L345.713,27.869L345.761,27.85L345.808,27.831L345.856,27.812L345.905,27.794L345.953,27.776L346.001,27.759L346.05,27.742L346.099,27.725L346.148,27.709L346.197,27.693L346.247,27.678L346.296,27.663L346.346,27.649L346.395,27.635L346.445,27.621L346.495,27.608L346.546,27.595L346.596,27.583L346.647,27.571L346.697,27.559L346.748,27.548L346.799,27.538L346.85,27.527L346.901,27.518L346.952,27.508L347.004,27.5L347.055,27.491L347.107,27.483L347.159,27.476L347.21,27.468L347.262,27.462L347.315,27.456L347.367,27.45L347.419,27.445L347.471,27.44L347.524,27.435L347.576,27.431L347.629,27.428L347.682,27.425L347.735,27.422L347.788,27.42L347.841,27.419L347.894,27.417L347.947,27.417L348,27.416L348.053,27.417L348.106,27.417L348.159,27.419L348.212,27.42L348.265,27.422L348.318,27.425L348.371,27.428L348.424,27.431L348.476,27.435L348.529,27.44L348.581,27.445L348.633,27.45L348.685,27.456L348.738,27.462L348.79,27.468L348.841,27.476L348.893,27.483L348.945,27.491L348.996,27.5L349.048,27.508L349.099,27.518L349.15,27.527L349.201,27.538L349.252,27.548L349.303,27.559L349.353,27.571L349.404,27.583L349.454,27.595L349.505,27.608L349.555,27.621L349.605,27.635L349.654,27.649L349.704,27.663L349.753,27.678L349.803,27.693L349.852,27.709L349.901,27.725L349.95,27.742L349.999,27.759L350.047,27.776L350.095,27.794L350.144,27.812L350.192,27.831L350.239,27.85L350.287,27.869L350.334,27.889L350.382,27.909L350.429,27.93L350.476,27.951L350.522,27.972L350.569,27.994L350.615,28.016L350.661,28.039L350.707,28.062L350.753,28.085L350.798,28.109L350.844,28.133L350.889,28.158L350.933,28.182L350.978,28.208L351.023,28.233L351.067,28.259L351.111,28.286L351.154,28.313L351.198,28.34L351.241,28.367L351.284,28.395L351.327,28.423L351.37,28.452L351.412,28.481L351.454,28.51L351.496,28.54L351.537,28.57L351.579,28.6L351.62,28.631L351.661,28.662L351.701,28.694L351.741,28.726L351.781,28.758L351.821,28.79L351.861,28.823L351.9,28.857L351.939,28.89L351.977,28.924L352.016,28.958L352.054,28.993L352.092,29.028L352.129,29.063L352.167,29.099L352.203,29.135L352.24,29.171L352.276,29.208L352.313,29.245L352.348,29.282L352.384,29.319L352.419,29.357L352.454,29.396L352.488,29.434L352.522,29.473L352.556,29.512L352.59,29.552L352.623,29.592L352.656,29.632L352.689,29.672L352.721,29.713L352.753,29.754L352.784,29.795L352.816,29.837L352.847,29.879L352.877,29.921L352.907,29.964L352.937,30.007L352.967,30.05L352.996,30.094L353.025,30.138L353.053,30.182L353.082,30.226L353.109,30.271L353.137,30.316L353.164,30.361L353.19,30.406L353.217,30.452L353.243,30.498L353.268,30.545L353.293,30.591L353.318,30.638L353.343,30.686L353.367,30.733L372.658,69.317L372.68,69.36L372.701,69.404L372.722,69.448L372.743,69.492L372.763,69.536L372.782,69.58L372.802,69.625L372.821,69.669L372.839,69.714L372.857,69.759L372.875,69.803L372.893,69.848L372.91,69.893L372.927,69.938L372.943,69.984L372.959,70.029L372.975,70.074L372.99,70.12L373.005,70.165L373.019,70.211L373.033,70.257L373.047,70.303L373.06,70.349L373.073,70.395L373.086,70.441L373.098,70.487L373.11,70.533L373.121,70.579L373.132,70.625L373.143,70.672L373.153,70.718L373.163,70.765L373.173,70.811L373.182,70.858L373.191,70.905L373.2,70.951L373.208,70.998L373.215,71.045L373.23,71.139L373.243,71.232L373.254,71.326L373.264,71.421L373.272,71.515L373.279,71.609L373.284,71.703L373.288,71.798L373.291,71.892L373.292,71.987L373.291,72.081L373.289,72.175L373.286,72.27L373.281,72.364L373.274,72.458L373.266,72.552L373.257,72.646L373.246,72.74L373.234,72.834L373.22,72.927L373.204,73.02L373.188,73.113L373.169,73.206L373.15,73.299L373.128,73.391L373.106,73.483L373.094,73.529L373.081,73.575L373.069,73.621L373.056,73.666L373.042,73.712L373.029,73.758L373.015,73.803L373,73.848L372.985,73.894L372.97,73.939L372.955,73.984L372.939,74.029L372.922,74.073L372.906,74.118L372.889,74.163L372.871,74.207L372.853,74.252L372.835,74.296L372.817,74.34L372.798,74.384L372.779,74.428L372.759,74.472L372.739,74.516L372.719,74.559L372.698,74.603L372.677,74.646L372.656,74.689L372.634,74.732L372.612,74.775L372.589,74.818L372.566,74.86L372.543,74.903L372.519,74.945L372.495,74.987L372.471,75.029L372.446,75.071L372.421,75.113L372.396,75.154L372.37,75.196L372.344,75.237L372.317,75.278L372.291,75.318L372.264,75.358L372.237,75.399L372.209,75.438L372.181,75.478L372.153,75.517L372.124,75.556L372.096,75.595L372.067,75.633L372.037,75.672L372.008,75.709L371.978,75.747L371.948,75.785L371.917,75.822L371.887,75.859L371.856,75.895L371.825,75.931L371.793,75.967L371.761,76.003L371.729,76.039L371.697,76.074L371.664,76.109L371.632,76.143L371.599,76.178L371.565,76.212L371.532,76.246L371.498,76.279L371.464,76.312L371.429,76.345L371.395,76.378L371.36,76.41L371.325,76.442L371.29,76.474L371.254,76.506L371.219,76.537L371.146,76.598L371.073,76.658L370.999,76.718L370.924,76.775L370.849,76.832L370.772,76.888L370.695,76.942L370.616,76.995L370.537,77.046L370.458,77.097L370.377,77.146L370.296,77.194L370.214,77.241L370.131,77.286L370.047,77.33L369.963,77.373L369.878,77.414L369.793,77.454L369.706,77.493L369.62,77.53L369.532,77.566L369.444,77.601L369.356,77.634L369.267,77.666L369.177,77.696L369.087,77.725L369.041,77.739L368.996,77.753L368.95,77.766L368.905,77.779L368.859,77.792L368.813,77.804L368.767,77.816L368.721,77.828L368.674,77.839L368.628,77.849L368.581,77.86L368.535,77.87L368.488,77.88L368.441,77.889L368.394,77.898L368.347,77.907L368.3,77.915L368.253,77.923L368.206,77.93L368.158,77.937L368.111,77.944L368.063,77.95L368.016,77.956L367.968,77.962L367.92,77.967L367.872,77.972L367.824,77.976L367.776,77.98L367.728,77.984L367.68,77.987L367.632,77.99L367.583,77.993L367.535,77.995L367.486,77.997L367.438,77.998L367.389,77.999L367.341,78L367.292,78L328.708,78L328.659,78L328.611,77.999L328.562,77.998L328.514,77.997L328.465,77.995L328.417,77.993L328.368,77.99L328.32,77.987L328.272,77.984L328.224,77.98L328.176,77.976L328.128,77.972L328.08,77.967L328.032,77.962L327.984,77.956L327.937,77.95L327.889,77.944L327.842,77.937L327.794,77.93L327.747,77.923L327.7,77.915L327.653,77.907L327.606,77.898L327.559,77.889L327.512,77.88L327.465,77.87L327.419,77.86L327.372,77.849L327.326,77.839L327.279,77.828L327.233,77.816L327.187,77.804L327.141,77.792L327.095,77.779L327.05,77.766L327.004,77.753L326.959,77.739L326.913,77.725L326.823,77.696L326.733,77.666L326.644,77.634L326.556,77.601L326.468,77.566L326.38,77.53L326.294,77.493L326.207,77.454L326.122,77.414L326.037,77.373L325.953,77.33L325.869,77.286L325.786,77.241L325.704,77.194L325.623,77.146L325.542,77.097L325.463,77.046L325.384,76.995L325.305,76.942L325.228,76.888L325.151,76.832L325.076,76.775L325.001,76.718L324.927,76.658L324.854,76.598L324.781,76.537L324.746,76.506L324.71,76.474L324.675,76.442L324.64,76.41L324.605,76.378L324.571,76.345L324.536,76.312L324.502,76.279L324.468,76.246L324.435,76.212L324.401,76.178L324.368,76.143L324.336,76.109L324.303,76.074L324.271,76.039L324.239,76.003L324.207,75.967L324.175,75.931L324.144,75.895L324.113,75.859L324.083,75.822L324.052,75.785L324.022,75.747L323.992,75.709L323.963,75.672L323.933,75.633L323.904,75.595L323.876,75.556L323.847,75.517L323.819,75.478L323.791,75.438L323.763,75.399L323.736,75.358L323.709,75.318L323.683,75.278L323.656,75.237L323.63,75.196L323.604,75.154L323.579,75.113L323.554,75.071L323.529,75.029L323.505,74.987L323.481,74.945L323.457,74.903L323.434,74.86L323.411,74.818L323.388,74.775L323.366,74.732L323.344,74.689L323.323,74.646L323.302,74.603L323.281,74.559L323.261,74.516L323.241,74.472L323.221,74.428L323.202,74.384L323.183,74.34L323.165,74.296L323.147,74.252L323.129,74.207L323.111,74.163L323.094,74.118L323.078,74.073L323.061,74.029L323.045,73.984L323.03,73.939L323.015,73.894L323,73.848L322.985,73.803L322.971,73.758L322.958,73.712L322.944,73.666L322.931,73.621L322.919,73.575L322.906,73.529L322.894,73.483L322.872,73.391L322.85,73.299L322.831,73.206L322.812,73.113L322.796,73.02L322.78,72.927L322.766,72.834L322.754,72.74L322.743,72.646L322.734,72.552L322.726,72.458L322.719,72.364L322.714,72.27L322.711,72.175L322.709,72.081L322.708,71.987L322.709,71.892ZM326.709,72.027L326.709,72.058L326.71,72.09L326.712,72.121L326.714,72.153L326.717,72.184L326.72,72.216L326.724,72.247L326.728,72.278L326.732,72.309L326.737,72.34L326.743,72.372L326.749,72.402L326.756,72.433L326.763,72.464L326.772,72.503L326.778,72.525L326.783,72.54L326.791,72.571L326.801,72.601L326.81,72.631L326.821,72.661L326.826,72.676L326.831,72.691L326.837,72.706L326.848,72.736L326.854,72.75L326.86,72.765L326.866,72.78L326.873,72.794L326.879,72.809L326.886,72.824L326.892,72.838L326.899,72.852L326.906,72.867L326.913,72.881L326.92,72.896L326.927,72.91L326.935,72.925L326.942,72.939L326.95,72.953L326.958,72.967L326.966,72.981L326.974,72.996L326.982,73.009L326.99,73.023L326.998,73.038L327.007,73.051L327.015,73.065L327.024,73.079L327.033,73.093L327.042,73.106L327.051,73.12L327.06,73.133L327.069,73.147L327.079,73.16L327.088,73.173L327.098,73.186L327.107,73.199L327.117,73.212L327.127,73.225L327.146,73.249L327.156,73.262L327.167,73.275L327.187,73.298L327.198,73.311L327.208,73.323L327.229,73.346L327.251,73.37L327.273,73.393L327.284,73.404L327.295,73.415L327.317,73.437L327.34,73.459L327.363,73.481L327.387,73.502L327.393,73.507L327.423,73.532L327.447,73.553L327.472,73.572L327.497,73.592L327.522,73.61L327.548,73.629L327.574,73.647L327.6,73.665L327.626,73.682L327.653,73.699L327.68,73.715L327.707,73.731L327.734,73.747L327.762,73.762L327.79,73.777L327.818,73.791L327.846,73.805L327.875,73.818L327.904,73.831L327.933,73.843L327.962,73.855L327.991,73.867L328.02,73.878L328.05,73.889L328.08,73.899L328.118,73.911L328.14,73.918L328.171,73.927L328.201,73.935L328.232,73.943L328.263,73.95L328.278,73.953L328.309,73.96L328.341,73.966L328.371,73.972L328.388,73.974L328.419,73.979L328.434,73.981L328.451,73.983L328.482,73.987L328.498,73.989L328.514,73.991L328.531,73.992L328.562,73.995L328.579,73.996L328.595,73.997L328.627,73.998L328.643,73.999L328.659,73.999L328.675,74L328.692,74L328.716,74L367.284,74L367.308,74L367.325,74L367.341,73.999L367.357,73.999L367.373,73.998L367.39,73.998L367.405,73.997L367.421,73.996L367.438,73.995L367.453,73.993L367.469,73.992L367.486,73.991L367.502,73.989L367.518,73.987L367.534,73.985L367.549,73.983L367.566,73.981L367.581,73.979L367.596,73.977L367.612,73.974L367.629,73.971L367.644,73.969L367.659,73.966L367.675,73.963L367.691,73.96L367.706,73.957L367.722,73.953L367.737,73.95L367.753,73.946L367.768,73.943L367.783,73.939L367.799,73.935L367.814,73.931L367.829,73.927L367.844,73.922L367.86,73.918L367.875,73.913L367.882,73.911L367.92,73.899L367.95,73.889L367.98,73.878L368.009,73.867L368.038,73.855L368.067,73.843L368.096,73.831L368.125,73.818L368.154,73.805L368.182,73.791L368.21,73.777L368.238,73.762L368.266,73.747L368.293,73.731L368.32,73.715L368.347,73.699L368.374,73.682L368.4,73.665L368.426,73.647L368.452,73.629L368.478,73.61L368.503,73.592L368.528,73.572L368.553,73.553L368.577,73.532L368.607,73.507L368.613,73.502L368.625,73.491L368.637,73.481L368.648,73.47L368.66,73.459L368.671,73.448L368.683,73.437L368.694,73.427L368.705,73.415L368.716,73.404L368.727,73.393L368.738,73.381L368.749,73.37L368.76,73.358L368.771,73.346L368.781,73.335L368.792,73.323L368.802,73.311L368.813,73.298L368.823,73.287L368.833,73.275L368.844,73.262L368.854,73.249L368.864,73.237L368.873,73.225L368.883,73.212L368.893,73.199L368.902,73.186L368.912,73.173L368.921,73.16L368.931,73.147L368.94,73.133L368.949,73.12L368.958,73.106L368.967,73.093L368.976,73.079L368.985,73.065L368.993,73.051L369.001,73.038L369.01,73.023L369.018,73.009L369.026,72.996L369.035,72.981L369.042,72.967L369.05,72.953L369.058,72.939L369.065,72.925L369.073,72.91L369.08,72.896L369.087,72.881L369.094,72.867L369.101,72.852L369.108,72.838L369.114,72.824L369.121,72.809L369.127,72.794L369.134,72.78L369.14,72.765L369.146,72.75L369.152,72.736L369.158,72.721L369.163,72.706L369.169,72.691L369.174,72.676L369.179,72.661L369.185,72.646L369.19,72.631L369.195,72.616L369.199,72.601L369.204,72.586L369.209,72.571L369.213,72.556L369.217,72.541L369.222,72.525L369.226,72.51L369.228,72.503L369.237,72.464L369.244,72.433L369.251,72.402L369.257,72.372L369.263,72.34L369.268,72.309L369.272,72.278L369.276,72.247L369.28,72.216L369.283,72.184L369.286,72.153L369.288,72.121L369.29,72.09L369.291,72.058L369.291,72.027L369.292,71.995L369.291,71.964L369.291,71.932L369.289,71.901L369.287,71.869L369.285,71.838L369.282,71.806L369.279,71.775L369.275,71.744L369.271,71.713L369.265,71.673L369.264,71.666L369.261,71.65L369.258,71.635L369.255,71.619L369.252,71.604L369.249,71.588L369.246,71.573L369.242,71.557L369.239,71.542L369.235,71.526L369.231,71.511L369.227,71.496L369.223,71.48L369.219,71.465L369.215,71.45L369.21,71.434L369.206,71.419L369.201,71.404L369.196,71.389L369.191,71.374L369.186,71.359L369.181,71.343L369.176,71.328L369.17,71.313L369.165,71.298L369.159,71.283L369.153,71.268L369.147,71.254L369.141,71.239L369.135,71.223L369.129,71.209L369.122,71.194L369.116,71.179L369.109,71.164L369.102,71.15L369.095,71.135L369.088,71.12L369.077,71.098L349.793,32.53L349.781,32.506L349.772,32.49L349.764,32.474L349.756,32.459L349.747,32.443L349.738,32.428L349.73,32.412L349.721,32.397L349.712,32.382L349.703,32.367L349.693,32.352L349.684,32.337L349.675,32.323L349.665,32.308L349.655,32.294L349.646,32.279L349.635,32.265L349.625,32.251L349.615,32.237L349.605,32.223L349.595,32.209L349.584,32.195L349.574,32.182L349.563,32.168L349.552,32.155L349.541,32.141L349.53,32.128L349.519,32.115L349.508,32.102L349.496,32.089L349.485,32.076L349.473,32.063L349.462,32.051L349.45,32.039L349.438,32.026L349.426,32.014L349.414,32.002L349.402,31.99L349.389,31.978L349.377,31.966L349.364,31.954L349.352,31.942L349.339,31.931L349.326,31.919L349.313,31.908L349.3,31.897L349.288,31.886L349.274,31.875L349.261,31.864L349.247,31.853L349.234,31.843L349.22,31.832L349.207,31.822L349.194,31.812L349.179,31.801L349.166,31.791L349.152,31.781L349.137,31.771L349.123,31.762L349.109,31.752L349.095,31.743L349.08,31.733L349.066,31.724L349.052,31.715L349.037,31.706L349.022,31.697L349.007,31.689L348.992,31.68L348.978,31.672L348.963,31.664L348.948,31.655L348.932,31.647L348.917,31.639L348.902,31.631L348.887,31.624L348.871,31.616L348.856,31.609L348.84,31.601L348.825,31.594L348.809,31.587L348.793,31.58L348.778,31.574L348.762,31.567L348.746,31.561L348.73,31.554L348.713,31.548L348.698,31.542L348.682,31.536L348.666,31.53L348.649,31.525L348.633,31.519L348.617,31.514L348.6,31.509L348.584,31.503L348.568,31.499L348.552,31.494L348.535,31.489L348.518,31.485L348.501,31.48L348.485,31.476L348.468,31.472L348.451,31.468L348.435,31.464L348.417,31.46L348.4,31.457L348.384,31.453L348.367,31.45L348.35,31.447L348.333,31.444L348.315,31.441L348.298,31.439L348.282,31.436L348.264,31.434L348.246,31.432L348.229,31.429L348.212,31.428L348.195,31.426L348.177,31.424L348.16,31.423L348.143,31.421L348.124,31.42L348.107,31.419L348.089,31.418L348.072,31.418L348.054,31.417L348.036,31.417L348.018,31.417L348,31.416L347.982,31.417L347.964,31.417L347.946,31.417L347.929,31.418L347.911,31.418L347.893,31.419L347.876,31.42L347.857,31.421L347.84,31.423L347.823,31.424L347.805,31.426L347.788,31.428L347.771,31.429L347.754,31.432L347.736,31.434L347.718,31.436L347.702,31.439L347.685,31.441L347.667,31.444L347.65,31.447L347.633,31.45L347.616,31.453L347.6,31.457L347.583,31.46L347.565,31.464L347.549,31.468L347.532,31.472L347.515,31.476L347.499,31.48L347.482,31.485L347.465,31.489L347.448,31.494L347.432,31.499L347.416,31.503L347.4,31.509L347.383,31.514L347.367,31.519L347.351,31.525L347.334,31.53L347.318,31.536L347.302,31.542L347.287,31.548L347.27,31.554L347.254,31.561L347.238,31.567L347.222,31.574L347.207,31.58L347.191,31.587L347.175,31.594L347.16,31.601L347.144,31.609L347.129,31.616L347.113,31.624L347.098,31.631L347.083,31.639L347.068,31.647L347.052,31.655L347.037,31.664L347.022,31.672L347.008,31.68L346.993,31.689L346.978,31.697L346.963,31.706L346.948,31.715L346.934,31.724L346.92,31.733L346.905,31.743L346.891,31.752L346.877,31.762L346.863,31.771L346.848,31.781L346.834,31.791L346.821,31.801L346.806,31.812L346.793,31.822L346.78,31.832L346.766,31.843L346.752,31.853L346.739,31.864L346.726,31.875L346.712,31.886L346.7,31.897L346.687,31.908L346.674,31.919L346.661,31.931L346.648,31.942L346.635,31.954L346.623,31.966L346.611,31.977L346.598,31.99L346.586,32.002L346.574,32.014L346.562,32.026L346.55,32.038L346.538,32.051L346.527,32.063L346.515,32.076L346.504,32.089L346.492,32.102L346.481,32.115L346.47,32.128L346.459,32.141L346.448,32.155L346.437,32.168L346.427,32.182L346.416,32.195L346.405,32.209L346.395,32.223L346.385,32.237L346.375,32.251L346.364,32.265L346.355,32.279L346.345,32.293L346.335,32.308L346.325,32.323L346.316,32.337L346.307,32.352L346.297,32.367L346.288,32.382L346.279,32.397L346.27,32.412L346.261,32.428L346.253,32.443L346.244,32.459L346.236,32.474L346.228,32.49L346.219,32.506L346.207,32.53L326.923,71.098L326.912,71.12L326.905,71.135L326.898,71.15L326.891,71.164L326.885,71.179L326.878,71.194L326.871,71.209L326.865,71.223L326.859,71.239L326.853,71.253L326.847,71.268L326.841,71.283L326.835,71.298L326.83,71.313L326.824,71.328L326.819,71.344L326.814,71.359L326.809,71.374L326.804,71.389L326.799,71.404L326.794,71.419L326.79,71.434L326.785,71.45L326.781,71.465L326.777,71.48L326.773,71.496L326.769,71.511L326.765,71.526L326.761,71.542L326.758,71.557L326.754,71.573L326.751,71.588L326.748,71.604L326.745,71.619L326.742,71.635L326.739,71.65L326.736,71.666L326.735,71.673L326.729,71.713L326.725,71.744L326.721,71.775L326.718,71.806L326.715,71.838L326.713,71.869L326.711,71.901L326.709,71.932L326.709,71.964L326.708,71.995L326.709,72.027Z" style="fill:rgb(229,57,53);"/>
            </g>
        </g>
    </g>
</svg>
